G75*
%MOIN*%
%OFA0B0*%
%FSLAX24Y24*%
%IPPOS*%
%LPD*%
%AMOC8*
5,1,8,0,0,1.08239X$1,22.5*
%
%ADD10R,0.0356X0.0434*%
%ADD11R,0.0820X0.0820*%
%ADD12C,0.0820*%
%ADD13R,0.0592X0.0552*%
D10*
X003874Y000570D03*
X004386Y000570D03*
X004386Y003846D03*
X003874Y003846D03*
X003874Y007121D03*
X004386Y007121D03*
X004386Y010397D03*
X003874Y010397D03*
X003874Y013672D03*
X004386Y013672D03*
X004386Y016948D03*
X003874Y016948D03*
X003874Y020224D03*
X004386Y020224D03*
X004386Y023499D03*
X003874Y023499D03*
X003874Y026775D03*
X004386Y026775D03*
X004386Y030050D03*
X003874Y030050D03*
X003874Y033326D03*
X004386Y033326D03*
X004386Y036601D03*
X003874Y036601D03*
X009149Y036601D03*
X009661Y036601D03*
X009661Y033326D03*
X009149Y033326D03*
X009149Y030050D03*
X009661Y030050D03*
X009661Y026775D03*
X009149Y026775D03*
X009149Y023499D03*
X009661Y023499D03*
X009661Y020224D03*
X009149Y020224D03*
X009149Y016948D03*
X009661Y016948D03*
X009661Y013672D03*
X009149Y013672D03*
X009149Y010397D03*
X009661Y010397D03*
X009661Y007121D03*
X009149Y007121D03*
X009149Y003846D03*
X009661Y003846D03*
X009661Y000570D03*
X009149Y000570D03*
X014425Y000570D03*
X014937Y000570D03*
X014937Y003846D03*
X014425Y003846D03*
X014425Y007121D03*
X014937Y007121D03*
X014937Y010397D03*
X014425Y010397D03*
X014425Y013672D03*
X014937Y013672D03*
X014937Y016948D03*
X014425Y016948D03*
X014425Y020224D03*
X014937Y020224D03*
X014937Y023499D03*
X014425Y023499D03*
X014425Y026775D03*
X014937Y026775D03*
X014937Y030050D03*
X014425Y030050D03*
X014425Y033326D03*
X014937Y033326D03*
X014937Y036601D03*
X014425Y036601D03*
X019701Y036601D03*
X020212Y036601D03*
X020212Y033326D03*
X019701Y033326D03*
X019701Y030050D03*
X020212Y030050D03*
X020212Y026775D03*
X019701Y026775D03*
X019701Y023499D03*
X020212Y023499D03*
X020212Y020224D03*
X019701Y020224D03*
X019701Y016948D03*
X020212Y016948D03*
X020212Y013672D03*
X019701Y013672D03*
X019701Y010397D03*
X020212Y010397D03*
X020212Y007121D03*
X019701Y007121D03*
X019701Y003846D03*
X020212Y003846D03*
X020212Y000570D03*
X019701Y000570D03*
X024976Y000570D03*
X025488Y000570D03*
X025488Y003846D03*
X024976Y003846D03*
X024976Y007121D03*
X025488Y007121D03*
X025488Y010397D03*
X024976Y010397D03*
X024976Y013672D03*
X025488Y013672D03*
X025488Y016948D03*
X024976Y016948D03*
X024976Y020224D03*
X025488Y020224D03*
X025488Y023499D03*
X024976Y023499D03*
X024976Y026775D03*
X025488Y026775D03*
X025488Y030050D03*
X024976Y030050D03*
X024976Y033326D03*
X025488Y033326D03*
X025488Y036601D03*
X024976Y036601D03*
X030252Y036601D03*
X030764Y036601D03*
X030764Y033326D03*
X030252Y033326D03*
X030252Y030050D03*
X030764Y030050D03*
X030764Y026775D03*
X030252Y026775D03*
X030252Y023499D03*
X030764Y023499D03*
X030764Y020224D03*
X030252Y020224D03*
X030252Y016948D03*
X030764Y016948D03*
X030764Y013672D03*
X030252Y013672D03*
X030252Y010397D03*
X030764Y010397D03*
X030764Y007121D03*
X030252Y007121D03*
X030252Y003846D03*
X030764Y003846D03*
X030764Y000570D03*
X030252Y000570D03*
D11*
X028558Y002800D03*
X028558Y006076D03*
X028558Y009351D03*
X028558Y012627D03*
X028558Y015902D03*
X028558Y019178D03*
X028558Y022454D03*
X028558Y025729D03*
X028558Y029005D03*
X028558Y032280D03*
X028558Y035556D03*
X028558Y038831D03*
X023282Y038831D03*
X023282Y035556D03*
X023282Y032280D03*
X023282Y029005D03*
X023282Y025729D03*
X023282Y022454D03*
X023282Y019178D03*
X023282Y015902D03*
X023282Y012627D03*
X023282Y009351D03*
X023282Y006076D03*
X023282Y002800D03*
X018007Y002800D03*
X018007Y006076D03*
X018007Y009351D03*
X018007Y012627D03*
X018007Y015902D03*
X018007Y019178D03*
X018007Y022454D03*
X018007Y025729D03*
X018007Y029005D03*
X018007Y032280D03*
X018007Y035556D03*
X018007Y038831D03*
X012731Y038831D03*
X012731Y035556D03*
X012731Y032280D03*
X012731Y029005D03*
X012731Y025729D03*
X012731Y022454D03*
X012731Y019178D03*
X012731Y015902D03*
X012731Y012627D03*
X012731Y009351D03*
X012731Y006076D03*
X012731Y002800D03*
X007455Y002800D03*
X007455Y006076D03*
X007455Y009351D03*
X007455Y012627D03*
X007455Y015902D03*
X007455Y019178D03*
X007455Y022454D03*
X007455Y025729D03*
X007455Y029005D03*
X007455Y032280D03*
X007455Y035556D03*
X007455Y038831D03*
X002180Y038831D03*
X002180Y035556D03*
X002180Y032280D03*
X002180Y029005D03*
X002180Y025729D03*
X002180Y022454D03*
X002180Y019178D03*
X002180Y015902D03*
X002180Y012627D03*
X002180Y009351D03*
X002180Y006076D03*
X002180Y002800D03*
D12*
X002180Y000800D03*
X002180Y001800D03*
X002180Y004076D03*
X002180Y005076D03*
X002180Y007351D03*
X002180Y008351D03*
X002180Y010627D03*
X002180Y011627D03*
X002180Y013902D03*
X002180Y014902D03*
X002180Y017178D03*
X002180Y018178D03*
X002180Y020454D03*
X002180Y021454D03*
X002180Y023729D03*
X002180Y024729D03*
X002180Y027005D03*
X002180Y028005D03*
X002180Y030280D03*
X002180Y031280D03*
X002180Y033556D03*
X002180Y034556D03*
X002180Y036831D03*
X002180Y037831D03*
X006180Y037831D03*
X006180Y036831D03*
X006180Y035556D03*
X006180Y034556D03*
X006180Y033556D03*
X006180Y032280D03*
X006180Y031280D03*
X006180Y030280D03*
X006180Y029005D03*
X006180Y028005D03*
X006180Y027005D03*
X006180Y025729D03*
X006180Y024729D03*
X006180Y023729D03*
X007455Y023729D03*
X007455Y024729D03*
X007455Y027005D03*
X007455Y028005D03*
X007455Y030280D03*
X007455Y031280D03*
X007455Y033556D03*
X007455Y034556D03*
X007455Y036831D03*
X007455Y037831D03*
X006180Y038831D03*
X011455Y038831D03*
X011455Y037831D03*
X011455Y036831D03*
X011455Y035556D03*
X011455Y034556D03*
X011455Y033556D03*
X011455Y032280D03*
X011455Y031280D03*
X011455Y030280D03*
X011455Y029005D03*
X011455Y028005D03*
X011455Y027005D03*
X011455Y025729D03*
X011455Y024729D03*
X011455Y023729D03*
X011455Y022454D03*
X011455Y021454D03*
X011455Y020454D03*
X011455Y019178D03*
X011455Y018178D03*
X011455Y017178D03*
X011455Y015902D03*
X011455Y014902D03*
X011455Y013902D03*
X011455Y012627D03*
X011455Y011627D03*
X011455Y010627D03*
X011455Y009351D03*
X011455Y008351D03*
X011455Y007351D03*
X011455Y006076D03*
X011455Y005076D03*
X011455Y004076D03*
X011455Y002800D03*
X011455Y001800D03*
X011455Y000800D03*
X012731Y000800D03*
X012731Y001800D03*
X012731Y004076D03*
X012731Y005076D03*
X012731Y007351D03*
X012731Y008351D03*
X012731Y010627D03*
X012731Y011627D03*
X012731Y013902D03*
X012731Y014902D03*
X012731Y017178D03*
X012731Y018178D03*
X012731Y020454D03*
X012731Y021454D03*
X012731Y023729D03*
X012731Y024729D03*
X012731Y027005D03*
X012731Y028005D03*
X012731Y030280D03*
X012731Y031280D03*
X012731Y033556D03*
X012731Y034556D03*
X012731Y036831D03*
X012731Y037831D03*
X016731Y037831D03*
X016731Y036831D03*
X016731Y035556D03*
X016731Y034556D03*
X016731Y033556D03*
X018007Y033556D03*
X018007Y034556D03*
X018007Y036831D03*
X018007Y037831D03*
X016731Y038831D03*
X022007Y038831D03*
X022007Y037831D03*
X022007Y036831D03*
X022007Y035556D03*
X022007Y034556D03*
X022007Y033556D03*
X022007Y032280D03*
X022007Y031280D03*
X022007Y030280D03*
X022007Y029005D03*
X022007Y028005D03*
X022007Y027005D03*
X022007Y025729D03*
X022007Y024729D03*
X022007Y023729D03*
X023282Y023729D03*
X023282Y024729D03*
X023282Y027005D03*
X023282Y028005D03*
X023282Y030280D03*
X023282Y031280D03*
X023282Y033556D03*
X023282Y034556D03*
X023282Y036831D03*
X023282Y037831D03*
X027282Y037831D03*
X027282Y036831D03*
X027282Y035556D03*
X027282Y034556D03*
X027282Y033556D03*
X027282Y032280D03*
X027282Y031280D03*
X027282Y030280D03*
X027282Y029005D03*
X027282Y028005D03*
X027282Y027005D03*
X027282Y025729D03*
X027282Y024729D03*
X027282Y023729D03*
X027282Y022454D03*
X027282Y021454D03*
X027282Y020454D03*
X027282Y019178D03*
X027282Y018178D03*
X027282Y017178D03*
X027282Y015902D03*
X027282Y014902D03*
X027282Y013902D03*
X027282Y012627D03*
X027282Y011627D03*
X027282Y010627D03*
X027282Y009351D03*
X027282Y008351D03*
X027282Y007351D03*
X027282Y006076D03*
X027282Y005076D03*
X027282Y004076D03*
X027282Y002800D03*
X027282Y001800D03*
X027282Y000800D03*
X028558Y000800D03*
X028558Y001800D03*
X028558Y004076D03*
X028558Y005076D03*
X028558Y007351D03*
X028558Y008351D03*
X028558Y010627D03*
X028558Y011627D03*
X028558Y013902D03*
X028558Y014902D03*
X028558Y017178D03*
X028558Y018178D03*
X028558Y020454D03*
X028558Y021454D03*
X028558Y023729D03*
X028558Y024729D03*
X028558Y027005D03*
X028558Y028005D03*
X028558Y030280D03*
X028558Y031280D03*
X028558Y033556D03*
X028558Y034556D03*
X028558Y036831D03*
X028558Y037831D03*
X027282Y038831D03*
X032558Y038831D03*
X032558Y037831D03*
X032558Y036831D03*
X032558Y035556D03*
X032558Y034556D03*
X032558Y033556D03*
X032558Y032280D03*
X032558Y031280D03*
X032558Y030280D03*
X032558Y029005D03*
X032558Y028005D03*
X032558Y027005D03*
X032558Y025729D03*
X032558Y024729D03*
X032558Y023729D03*
X032558Y022454D03*
X032558Y021454D03*
X032558Y020454D03*
X032558Y019178D03*
X032558Y018178D03*
X032558Y017178D03*
X032558Y015902D03*
X032558Y014902D03*
X032558Y013902D03*
X032558Y012627D03*
X032558Y011627D03*
X032558Y010627D03*
X032558Y009351D03*
X032558Y008351D03*
X032558Y007351D03*
X032558Y006076D03*
X032558Y005076D03*
X032558Y004076D03*
X032558Y002800D03*
X032558Y001800D03*
X032558Y000800D03*
X023282Y000800D03*
X023282Y001800D03*
X022007Y001800D03*
X022007Y000800D03*
X022007Y002800D03*
X022007Y004076D03*
X022007Y005076D03*
X022007Y006076D03*
X022007Y007351D03*
X022007Y008351D03*
X022007Y009351D03*
X022007Y010627D03*
X022007Y011627D03*
X022007Y012627D03*
X022007Y013902D03*
X022007Y014902D03*
X022007Y015902D03*
X022007Y017178D03*
X022007Y018178D03*
X022007Y019178D03*
X022007Y020454D03*
X022007Y021454D03*
X022007Y022454D03*
X023282Y021454D03*
X023282Y020454D03*
X023282Y018178D03*
X023282Y017178D03*
X023282Y014902D03*
X023282Y013902D03*
X023282Y011627D03*
X023282Y010627D03*
X023282Y008351D03*
X023282Y007351D03*
X023282Y005076D03*
X023282Y004076D03*
X018007Y004076D03*
X018007Y005076D03*
X016731Y005076D03*
X016731Y004076D03*
X016731Y002800D03*
X016731Y001800D03*
X016731Y000800D03*
X018007Y000800D03*
X018007Y001800D03*
X016731Y006076D03*
X016731Y007351D03*
X016731Y008351D03*
X016731Y009351D03*
X016731Y010627D03*
X016731Y011627D03*
X016731Y012627D03*
X018007Y011627D03*
X018007Y010627D03*
X018007Y008351D03*
X018007Y007351D03*
X018007Y013902D03*
X018007Y014902D03*
X016731Y014902D03*
X016731Y013902D03*
X016731Y015902D03*
X016731Y017178D03*
X016731Y018178D03*
X016731Y019178D03*
X016731Y020454D03*
X016731Y021454D03*
X016731Y022454D03*
X018007Y021454D03*
X018007Y020454D03*
X018007Y018178D03*
X018007Y017178D03*
X018007Y023729D03*
X018007Y024729D03*
X016731Y024729D03*
X016731Y023729D03*
X016731Y025729D03*
X016731Y027005D03*
X016731Y028005D03*
X016731Y029005D03*
X016731Y030280D03*
X016731Y031280D03*
X016731Y032280D03*
X018007Y031280D03*
X018007Y030280D03*
X018007Y028005D03*
X018007Y027005D03*
X007455Y021454D03*
X007455Y020454D03*
X006180Y020454D03*
X006180Y021454D03*
X006180Y022454D03*
X006180Y019178D03*
X006180Y018178D03*
X006180Y017178D03*
X006180Y015902D03*
X006180Y014902D03*
X006180Y013902D03*
X006180Y012627D03*
X006180Y011627D03*
X006180Y010627D03*
X006180Y009351D03*
X006180Y008351D03*
X006180Y007351D03*
X006180Y006076D03*
X006180Y005076D03*
X006180Y004076D03*
X006180Y002800D03*
X006180Y001800D03*
X006180Y000800D03*
X007455Y000800D03*
X007455Y001800D03*
X007455Y004076D03*
X007455Y005076D03*
X007455Y007351D03*
X007455Y008351D03*
X007455Y010627D03*
X007455Y011627D03*
X007455Y013902D03*
X007455Y014902D03*
X007455Y017178D03*
X007455Y018178D03*
D13*
X008589Y018198D03*
X008589Y018828D03*
X008589Y017568D03*
X010322Y017568D03*
X010322Y018198D03*
X010322Y018828D03*
X010322Y020844D03*
X010322Y021474D03*
X010322Y022103D03*
X008589Y022103D03*
X008589Y021474D03*
X008589Y020844D03*
X008589Y024119D03*
X008589Y024749D03*
X008589Y025379D03*
X010322Y025379D03*
X010322Y024749D03*
X010322Y024119D03*
X010322Y027395D03*
X010322Y028025D03*
X010322Y028655D03*
X008589Y028655D03*
X008589Y028025D03*
X008589Y027395D03*
X008589Y030670D03*
X008589Y031300D03*
X008589Y031930D03*
X010322Y031930D03*
X010322Y031300D03*
X010322Y030670D03*
X010322Y033946D03*
X010322Y034576D03*
X010322Y035206D03*
X008589Y035206D03*
X008589Y034576D03*
X008589Y033946D03*
X008589Y037222D03*
X008589Y037851D03*
X008589Y038481D03*
X010322Y038481D03*
X010322Y037851D03*
X010322Y037222D03*
X013865Y037222D03*
X013865Y037851D03*
X013865Y038481D03*
X015597Y038481D03*
X015597Y037851D03*
X015597Y037222D03*
X015597Y035206D03*
X015597Y034576D03*
X015597Y033946D03*
X013865Y033946D03*
X013865Y034576D03*
X013865Y035206D03*
X013865Y031930D03*
X013865Y031300D03*
X013865Y030670D03*
X015597Y030670D03*
X015597Y031300D03*
X015597Y031930D03*
X015597Y028655D03*
X015597Y028025D03*
X015597Y027395D03*
X013865Y027395D03*
X013865Y028025D03*
X013865Y028655D03*
X013865Y025379D03*
X013865Y024749D03*
X013865Y024119D03*
X015597Y024119D03*
X015597Y024749D03*
X015597Y025379D03*
X015597Y022103D03*
X015597Y021474D03*
X015597Y020844D03*
X013865Y020844D03*
X013865Y021474D03*
X013865Y022103D03*
X013865Y018828D03*
X013865Y018198D03*
X013865Y017568D03*
X015597Y017568D03*
X015597Y018198D03*
X015597Y018828D03*
X015597Y015552D03*
X015597Y014922D03*
X015597Y014292D03*
X013865Y014292D03*
X013865Y014922D03*
X013865Y015552D03*
X013865Y012277D03*
X013865Y011647D03*
X013865Y011017D03*
X015597Y011017D03*
X015597Y011647D03*
X015597Y012277D03*
X015597Y009001D03*
X015597Y008371D03*
X015597Y007741D03*
X013865Y007741D03*
X013865Y008371D03*
X013865Y009001D03*
X013865Y005726D03*
X013865Y005096D03*
X013865Y004466D03*
X015597Y004466D03*
X015597Y005096D03*
X015597Y005726D03*
X015597Y002450D03*
X015597Y001820D03*
X015597Y001190D03*
X013865Y001190D03*
X013865Y001820D03*
X013865Y002450D03*
X010322Y002450D03*
X010322Y001820D03*
X010322Y001190D03*
X008589Y001190D03*
X008589Y001820D03*
X008589Y002450D03*
X008589Y004466D03*
X008589Y005096D03*
X008589Y005726D03*
X010322Y005726D03*
X010322Y005096D03*
X010322Y004466D03*
X010322Y007741D03*
X010322Y008371D03*
X010322Y009001D03*
X008589Y009001D03*
X008589Y008371D03*
X008589Y007741D03*
X008589Y011017D03*
X008589Y011647D03*
X008589Y012277D03*
X010322Y012277D03*
X010322Y011647D03*
X010322Y011017D03*
X010322Y014292D03*
X010322Y014922D03*
X010322Y015552D03*
X008589Y015552D03*
X008589Y014922D03*
X008589Y014292D03*
X005046Y014292D03*
X005046Y014922D03*
X005046Y015552D03*
X003314Y015552D03*
X003314Y014922D03*
X003314Y014292D03*
X003314Y012277D03*
X003314Y011647D03*
X003314Y011017D03*
X005046Y011017D03*
X005046Y011647D03*
X005046Y012277D03*
X005046Y009001D03*
X005046Y008371D03*
X005046Y007741D03*
X003314Y007741D03*
X003314Y008371D03*
X003314Y009001D03*
X003314Y005726D03*
X003314Y005096D03*
X003314Y004466D03*
X005046Y004466D03*
X005046Y005096D03*
X005046Y005726D03*
X005046Y002450D03*
X005046Y001820D03*
X005046Y001190D03*
X003314Y001190D03*
X003314Y001820D03*
X003314Y002450D03*
X003314Y017568D03*
X003314Y018198D03*
X003314Y018828D03*
X005046Y018828D03*
X005046Y018198D03*
X005046Y017568D03*
X005046Y020844D03*
X005046Y021474D03*
X005046Y022103D03*
X003314Y022103D03*
X003314Y021474D03*
X003314Y020844D03*
X003314Y024119D03*
X003314Y024749D03*
X003314Y025379D03*
X005046Y025379D03*
X005046Y024749D03*
X005046Y024119D03*
X005046Y027395D03*
X005046Y028025D03*
X005046Y028655D03*
X003314Y028655D03*
X003314Y028025D03*
X003314Y027395D03*
X003314Y030670D03*
X003314Y031300D03*
X003314Y031930D03*
X005046Y031930D03*
X005046Y031300D03*
X005046Y030670D03*
X005046Y033946D03*
X005046Y034576D03*
X005046Y035206D03*
X003314Y035206D03*
X003314Y034576D03*
X003314Y033946D03*
X003314Y037222D03*
X003314Y037851D03*
X003314Y038481D03*
X005046Y038481D03*
X005046Y037851D03*
X005046Y037222D03*
X019140Y037222D03*
X019140Y037851D03*
X019140Y038481D03*
X020873Y038481D03*
X020873Y037851D03*
X020873Y037222D03*
X020873Y035206D03*
X020873Y034576D03*
X020873Y033946D03*
X019140Y033946D03*
X019140Y034576D03*
X019140Y035206D03*
X019140Y031930D03*
X019140Y031300D03*
X019140Y030670D03*
X020873Y030670D03*
X020873Y031300D03*
X020873Y031930D03*
X020873Y028655D03*
X020873Y028025D03*
X020873Y027395D03*
X019140Y027395D03*
X019140Y028025D03*
X019140Y028655D03*
X019140Y025379D03*
X019140Y024749D03*
X019140Y024119D03*
X020873Y024119D03*
X020873Y024749D03*
X020873Y025379D03*
X020873Y022103D03*
X020873Y021474D03*
X020873Y020844D03*
X019140Y020844D03*
X019140Y021474D03*
X019140Y022103D03*
X019140Y018828D03*
X019140Y018198D03*
X019140Y017568D03*
X020873Y017568D03*
X020873Y018198D03*
X020873Y018828D03*
X020873Y015552D03*
X020873Y014922D03*
X020873Y014292D03*
X019140Y014292D03*
X019140Y014922D03*
X019140Y015552D03*
X019140Y012277D03*
X019140Y011647D03*
X019140Y011017D03*
X020873Y011017D03*
X020873Y011647D03*
X020873Y012277D03*
X020873Y009001D03*
X020873Y008371D03*
X020873Y007741D03*
X019140Y007741D03*
X019140Y008371D03*
X019140Y009001D03*
X019140Y005726D03*
X019140Y005096D03*
X019140Y004466D03*
X020873Y004466D03*
X020873Y005096D03*
X020873Y005726D03*
X020873Y002450D03*
X020873Y001820D03*
X020873Y001190D03*
X019140Y001190D03*
X019140Y001820D03*
X019140Y002450D03*
X024416Y002450D03*
X024416Y001820D03*
X024416Y001190D03*
X026148Y001190D03*
X026148Y001820D03*
X026148Y002450D03*
X026148Y004466D03*
X026148Y005096D03*
X026148Y005726D03*
X024416Y005726D03*
X024416Y005096D03*
X024416Y004466D03*
X024416Y007741D03*
X024416Y008371D03*
X024416Y009001D03*
X026148Y009001D03*
X026148Y008371D03*
X026148Y007741D03*
X026148Y011017D03*
X026148Y011647D03*
X026148Y012277D03*
X024416Y012277D03*
X024416Y011647D03*
X024416Y011017D03*
X024416Y014292D03*
X024416Y014922D03*
X024416Y015552D03*
X026148Y015552D03*
X026148Y014922D03*
X026148Y014292D03*
X026148Y017568D03*
X026148Y018198D03*
X026148Y018828D03*
X024416Y018828D03*
X024416Y018198D03*
X024416Y017568D03*
X024416Y020844D03*
X024416Y021474D03*
X024416Y022103D03*
X026148Y022103D03*
X026148Y021474D03*
X026148Y020844D03*
X026148Y024119D03*
X026148Y024749D03*
X026148Y025379D03*
X024416Y025379D03*
X024416Y024749D03*
X024416Y024119D03*
X024416Y027395D03*
X024416Y028025D03*
X024416Y028655D03*
X026148Y028655D03*
X026148Y028025D03*
X026148Y027395D03*
X026148Y030670D03*
X026148Y031300D03*
X026148Y031930D03*
X024416Y031930D03*
X024416Y031300D03*
X024416Y030670D03*
X024416Y033946D03*
X024416Y034576D03*
X024416Y035206D03*
X026148Y035206D03*
X026148Y034576D03*
X026148Y033946D03*
X026148Y037222D03*
X026148Y037851D03*
X026148Y038481D03*
X024416Y038481D03*
X024416Y037851D03*
X024416Y037222D03*
X029692Y037222D03*
X029692Y037851D03*
X029692Y038481D03*
X031424Y038481D03*
X031424Y037851D03*
X031424Y037222D03*
X031424Y035206D03*
X031424Y034576D03*
X031424Y033946D03*
X029692Y033946D03*
X029692Y034576D03*
X029692Y035206D03*
X029692Y031930D03*
X029692Y031300D03*
X029692Y030670D03*
X031424Y030670D03*
X031424Y031300D03*
X031424Y031930D03*
X031424Y028655D03*
X031424Y028025D03*
X031424Y027395D03*
X029692Y027395D03*
X029692Y028025D03*
X029692Y028655D03*
X029692Y025379D03*
X029692Y024749D03*
X029692Y024119D03*
X031424Y024119D03*
X031424Y024749D03*
X031424Y025379D03*
X031424Y022103D03*
X031424Y021474D03*
X031424Y020844D03*
X029692Y020844D03*
X029692Y021474D03*
X029692Y022103D03*
X029692Y018828D03*
X029692Y018198D03*
X029692Y017568D03*
X031424Y017568D03*
X031424Y018198D03*
X031424Y018828D03*
X031424Y015552D03*
X031424Y014922D03*
X031424Y014292D03*
X029692Y014292D03*
X029692Y014922D03*
X029692Y015552D03*
X029692Y012277D03*
X029692Y011647D03*
X029692Y011017D03*
X031424Y011017D03*
X031424Y011647D03*
X031424Y012277D03*
X031424Y009001D03*
X031424Y008371D03*
X031424Y007741D03*
X029692Y007741D03*
X029692Y008371D03*
X029692Y009001D03*
X029692Y005726D03*
X029692Y005096D03*
X029692Y004466D03*
X031424Y004466D03*
X031424Y005096D03*
X031424Y005726D03*
X031424Y002450D03*
X031424Y001820D03*
X031424Y001190D03*
X029692Y001190D03*
X029692Y001820D03*
X029692Y002450D03*
M02*
