G75*
%MOIN*%
%OFA0B0*%
%FSLAX24Y24*%
%IPPOS*%
%LPD*%
%AMOC8*
5,1,8,0,0,1.08239X$1,22.5*
%
%ADD10C,0.0030*%
%ADD11C,0.0040*%
%ADD12C,0.0080*%
%ADD13C,0.0010*%
D10*
X001894Y000415D02*
X001857Y000452D01*
X001894Y000415D02*
X001967Y000415D01*
X002004Y000452D01*
X002004Y000598D01*
X001967Y000635D01*
X001894Y000635D01*
X001857Y000598D01*
X002087Y000598D02*
X002087Y000562D01*
X002234Y000415D01*
X002087Y000415D01*
X002317Y000452D02*
X002354Y000415D01*
X002428Y000415D01*
X002464Y000452D01*
X002317Y000598D01*
X002317Y000452D01*
X002464Y000452D02*
X002464Y000598D01*
X002428Y000635D01*
X002354Y000635D01*
X002317Y000598D01*
X002234Y000598D02*
X002197Y000635D01*
X002124Y000635D01*
X002087Y000598D01*
X002548Y000415D02*
X002694Y000415D01*
X002621Y000415D02*
X002621Y000635D01*
X002694Y000562D01*
X002778Y000562D02*
X002778Y000415D01*
X002778Y000525D02*
X002925Y000525D01*
X002925Y000562D02*
X002851Y000635D01*
X002778Y000562D01*
X002925Y000562D02*
X002925Y000415D01*
X003008Y000525D02*
X003045Y000488D01*
X003155Y000488D01*
X003155Y000415D02*
X003155Y000635D01*
X003045Y000635D01*
X003008Y000598D01*
X003008Y000525D01*
X003238Y000525D02*
X003385Y000525D01*
X003385Y000562D02*
X003312Y000635D01*
X003238Y000562D01*
X003238Y000415D01*
X003385Y000415D02*
X003385Y000562D01*
X002917Y002365D02*
X002844Y002512D01*
X002760Y002512D02*
X002687Y002585D01*
X002687Y002365D01*
X002760Y002365D02*
X002614Y002365D01*
X002530Y002365D02*
X002494Y002365D01*
X002494Y002402D01*
X002530Y002402D01*
X002530Y002365D01*
X002415Y002402D02*
X002268Y002548D01*
X002268Y002402D01*
X002305Y002365D01*
X002379Y002365D01*
X002415Y002402D01*
X002415Y002548D01*
X002379Y002585D01*
X002305Y002585D01*
X002268Y002548D01*
X002917Y002365D02*
X002991Y002512D01*
D11*
X003495Y002722D02*
X003495Y002929D01*
X003547Y002980D01*
X003651Y002980D01*
X003702Y002929D01*
X003702Y002722D01*
X003651Y002670D01*
X003547Y002670D01*
X003495Y002722D01*
X003818Y002722D02*
X003818Y002929D01*
X003869Y002980D01*
X004025Y002980D01*
X004025Y002670D01*
X003869Y002670D01*
X003818Y002722D01*
X003869Y001930D02*
X003973Y001930D01*
X004025Y001879D01*
X004025Y001672D01*
X003973Y001620D01*
X003869Y001620D01*
X003818Y001672D01*
X003702Y001672D02*
X003651Y001620D01*
X003547Y001620D01*
X003495Y001672D01*
X003495Y001879D01*
X003547Y001930D01*
X003651Y001930D01*
X003702Y001879D01*
X003702Y001672D01*
X003818Y001879D02*
X003869Y001930D01*
X003840Y001130D02*
X003840Y000923D01*
X003943Y000820D01*
X004047Y000923D01*
X004047Y001130D01*
X003725Y001079D02*
X003725Y000872D01*
X003673Y000820D01*
X003569Y000820D01*
X003518Y000872D01*
X003402Y000872D02*
X003351Y000820D01*
X003247Y000820D01*
X003195Y000872D01*
X003402Y000872D02*
X003402Y001079D01*
X003351Y001130D01*
X003247Y001130D01*
X003195Y001079D01*
X003518Y001079D02*
X003569Y001130D01*
X003673Y001130D01*
X003725Y001079D01*
X002097Y001079D02*
X002097Y000872D01*
X002045Y000820D01*
X001942Y000820D01*
X001890Y000872D01*
X001890Y000975D01*
X001993Y000975D01*
X001890Y001079D02*
X001942Y001130D01*
X002045Y001130D01*
X002097Y001079D01*
X001775Y001130D02*
X001568Y000820D01*
X001568Y001130D01*
X001452Y001130D02*
X001297Y001130D01*
X001245Y001079D01*
X001245Y000872D01*
X001297Y000820D01*
X001452Y000820D01*
X001452Y001130D01*
X001775Y001130D02*
X001775Y000820D01*
X001615Y001620D02*
X001512Y001620D01*
X001460Y001672D01*
X001345Y001620D02*
X001241Y001620D01*
X001293Y001620D02*
X001293Y001930D01*
X001345Y001930D02*
X001241Y001930D01*
X001460Y001879D02*
X001512Y001930D01*
X001615Y001930D01*
X001667Y001879D01*
X001667Y001672D01*
X001615Y001620D01*
X001667Y002670D02*
X001512Y002670D01*
X001460Y002722D01*
X001460Y002929D01*
X001512Y002980D01*
X001667Y002980D01*
X001667Y002670D01*
X001345Y002670D02*
X001241Y002670D01*
X001293Y002670D02*
X001293Y002980D01*
X001345Y002980D02*
X001241Y002980D01*
D12*
X001150Y000300D02*
X000150Y000300D01*
X000150Y003300D01*
X001150Y003300D01*
X001150Y000300D01*
X004150Y000300D02*
X005150Y000300D01*
X005150Y003300D01*
X004150Y003300D01*
X004150Y000300D01*
D13*
X003000Y001250D02*
X002726Y001250D01*
X002726Y001520D01*
X002776Y001546D01*
X002776Y001828D01*
X002728Y001868D01*
X002728Y001886D01*
X002528Y001886D01*
X002528Y001870D01*
X002702Y001870D01*
X002724Y001870D01*
X002724Y001892D01*
X002702Y001892D01*
X002702Y001984D01*
X002674Y002010D01*
X002548Y002010D01*
X002526Y001988D01*
X002526Y001870D01*
X002496Y001870D01*
X002448Y001830D01*
X002448Y001546D01*
X002498Y001522D01*
X002498Y001248D01*
X002224Y001248D01*
X002224Y002178D01*
X003000Y002178D01*
X003000Y001250D01*
X003000Y001252D02*
X002726Y001252D01*
X002726Y001261D02*
X003000Y001261D01*
X003000Y001269D02*
X002726Y001269D01*
X002726Y001278D02*
X003000Y001278D01*
X003000Y001286D02*
X002726Y001286D01*
X002726Y001295D02*
X003000Y001295D01*
X003000Y001303D02*
X002726Y001303D01*
X002726Y001312D02*
X003000Y001312D01*
X003000Y001320D02*
X002726Y001320D01*
X002726Y001329D02*
X003000Y001329D01*
X003000Y001337D02*
X002726Y001337D01*
X002726Y001346D02*
X003000Y001346D01*
X003000Y001354D02*
X002726Y001354D01*
X002726Y001363D02*
X003000Y001363D01*
X003000Y001371D02*
X002726Y001371D01*
X002726Y001380D02*
X003000Y001380D01*
X003000Y001388D02*
X002726Y001388D01*
X002726Y001397D02*
X003000Y001397D01*
X003000Y001405D02*
X002726Y001405D01*
X002726Y001414D02*
X003000Y001414D01*
X003000Y001422D02*
X002726Y001422D01*
X002726Y001431D02*
X003000Y001431D01*
X003000Y001439D02*
X002726Y001439D01*
X002726Y001448D02*
X003000Y001448D01*
X003000Y001456D02*
X002726Y001456D01*
X002726Y001465D02*
X003000Y001465D01*
X003000Y001473D02*
X002726Y001473D01*
X002726Y001482D02*
X003000Y001482D01*
X003000Y001490D02*
X002726Y001490D01*
X002726Y001499D02*
X003000Y001499D01*
X003000Y001507D02*
X002726Y001507D01*
X002726Y001516D02*
X003000Y001516D01*
X003000Y001524D02*
X002734Y001524D01*
X002750Y001533D02*
X003000Y001533D01*
X003000Y001541D02*
X002766Y001541D01*
X002776Y001550D02*
X003000Y001550D01*
X003000Y001558D02*
X002776Y001558D01*
X002776Y001567D02*
X003000Y001567D01*
X003000Y001575D02*
X002776Y001575D01*
X002776Y001584D02*
X003000Y001584D01*
X003000Y001592D02*
X002776Y001592D01*
X002776Y001601D02*
X003000Y001601D01*
X003000Y001609D02*
X002776Y001609D01*
X002776Y001618D02*
X003000Y001618D01*
X003000Y001626D02*
X002776Y001626D01*
X002776Y001635D02*
X003000Y001635D01*
X003000Y001643D02*
X002776Y001643D01*
X002776Y001652D02*
X003000Y001652D01*
X003000Y001660D02*
X002776Y001660D01*
X002776Y001669D02*
X003000Y001669D01*
X003000Y001677D02*
X002776Y001677D01*
X002776Y001686D02*
X003000Y001686D01*
X003000Y001694D02*
X002776Y001694D01*
X002776Y001703D02*
X003000Y001703D01*
X003000Y001711D02*
X002776Y001711D01*
X002776Y001720D02*
X003000Y001720D01*
X003000Y001728D02*
X002776Y001728D01*
X002776Y001737D02*
X003000Y001737D01*
X003000Y001745D02*
X002776Y001745D01*
X002776Y001754D02*
X003000Y001754D01*
X003000Y001762D02*
X002776Y001762D01*
X002776Y001771D02*
X003000Y001771D01*
X003000Y001779D02*
X002776Y001779D01*
X002776Y001788D02*
X003000Y001788D01*
X003000Y001796D02*
X002776Y001796D01*
X002776Y001805D02*
X003000Y001805D01*
X003000Y001813D02*
X002776Y001813D01*
X002776Y001822D02*
X003000Y001822D01*
X003000Y001830D02*
X002774Y001830D01*
X002763Y001839D02*
X003000Y001839D01*
X003000Y001847D02*
X002753Y001847D01*
X002743Y001856D02*
X003000Y001856D01*
X003000Y001864D02*
X002733Y001864D01*
X002728Y001873D02*
X003000Y001873D01*
X003000Y001881D02*
X002728Y001881D01*
X002724Y001881D02*
X002528Y001881D01*
X002526Y001881D02*
X002224Y001881D01*
X002224Y001873D02*
X002526Y001873D01*
X002528Y001873D02*
X002724Y001873D01*
X002724Y001890D02*
X003000Y001890D01*
X003000Y001898D02*
X002702Y001898D01*
X002702Y001907D02*
X003000Y001907D01*
X003000Y001915D02*
X002702Y001915D01*
X002702Y001924D02*
X003000Y001924D01*
X003000Y001932D02*
X002702Y001932D01*
X002702Y001941D02*
X003000Y001941D01*
X003000Y001949D02*
X002702Y001949D01*
X002702Y001958D02*
X003000Y001958D01*
X003000Y001966D02*
X002702Y001966D01*
X002702Y001975D02*
X003000Y001975D01*
X003000Y001983D02*
X002702Y001983D01*
X002694Y001992D02*
X003000Y001992D01*
X003000Y002000D02*
X002685Y002000D01*
X002676Y002009D02*
X003000Y002009D01*
X003000Y002017D02*
X002224Y002017D01*
X002224Y002009D02*
X002547Y002009D01*
X002538Y002000D02*
X002224Y002000D01*
X002224Y001992D02*
X002530Y001992D01*
X002526Y001983D02*
X002224Y001983D01*
X002224Y001975D02*
X002526Y001975D01*
X002526Y001966D02*
X002224Y001966D01*
X002224Y001958D02*
X002526Y001958D01*
X002526Y001949D02*
X002224Y001949D01*
X002224Y001941D02*
X002526Y001941D01*
X002526Y001932D02*
X002224Y001932D01*
X002224Y001924D02*
X002526Y001924D01*
X002526Y001915D02*
X002224Y001915D01*
X002224Y001907D02*
X002526Y001907D01*
X002526Y001898D02*
X002224Y001898D01*
X002224Y001890D02*
X002526Y001890D01*
X002489Y001864D02*
X002224Y001864D01*
X002224Y001856D02*
X002479Y001856D01*
X002468Y001847D02*
X002224Y001847D01*
X002224Y001839D02*
X002458Y001839D01*
X002448Y001830D02*
X002224Y001830D01*
X002224Y001822D02*
X002448Y001822D01*
X002448Y001813D02*
X002224Y001813D01*
X002224Y001805D02*
X002448Y001805D01*
X002448Y001796D02*
X002224Y001796D01*
X002224Y001788D02*
X002448Y001788D01*
X002448Y001779D02*
X002224Y001779D01*
X002224Y001771D02*
X002448Y001771D01*
X002448Y001762D02*
X002224Y001762D01*
X002224Y001754D02*
X002448Y001754D01*
X002448Y001745D02*
X002224Y001745D01*
X002224Y001737D02*
X002448Y001737D01*
X002448Y001728D02*
X002224Y001728D01*
X002224Y001720D02*
X002448Y001720D01*
X002448Y001711D02*
X002224Y001711D01*
X002224Y001703D02*
X002448Y001703D01*
X002448Y001694D02*
X002224Y001694D01*
X002224Y001686D02*
X002448Y001686D01*
X002448Y001677D02*
X002224Y001677D01*
X002224Y001669D02*
X002448Y001669D01*
X002448Y001660D02*
X002224Y001660D01*
X002224Y001652D02*
X002448Y001652D01*
X002448Y001643D02*
X002224Y001643D01*
X002224Y001635D02*
X002448Y001635D01*
X002448Y001626D02*
X002224Y001626D01*
X002224Y001618D02*
X002448Y001618D01*
X002448Y001609D02*
X002224Y001609D01*
X002224Y001601D02*
X002448Y001601D01*
X002448Y001592D02*
X002224Y001592D01*
X002224Y001584D02*
X002448Y001584D01*
X002448Y001575D02*
X002224Y001575D01*
X002224Y001567D02*
X002448Y001567D01*
X002448Y001558D02*
X002224Y001558D01*
X002224Y001550D02*
X002448Y001550D01*
X002458Y001541D02*
X002224Y001541D01*
X002224Y001533D02*
X002476Y001533D01*
X002494Y001524D02*
X002224Y001524D01*
X002224Y001516D02*
X002498Y001516D01*
X002498Y001507D02*
X002224Y001507D01*
X002224Y001499D02*
X002498Y001499D01*
X002498Y001490D02*
X002224Y001490D01*
X002224Y001482D02*
X002498Y001482D01*
X002498Y001473D02*
X002224Y001473D01*
X002224Y001465D02*
X002498Y001465D01*
X002498Y001456D02*
X002224Y001456D01*
X002224Y001448D02*
X002498Y001448D01*
X002498Y001439D02*
X002224Y001439D01*
X002224Y001431D02*
X002498Y001431D01*
X002498Y001422D02*
X002224Y001422D01*
X002224Y001414D02*
X002498Y001414D01*
X002498Y001405D02*
X002224Y001405D01*
X002224Y001397D02*
X002498Y001397D01*
X002498Y001388D02*
X002224Y001388D01*
X002224Y001380D02*
X002498Y001380D01*
X002498Y001371D02*
X002224Y001371D01*
X002224Y001363D02*
X002498Y001363D01*
X002498Y001354D02*
X002224Y001354D01*
X002224Y001346D02*
X002498Y001346D01*
X002498Y001337D02*
X002224Y001337D01*
X002224Y001329D02*
X002498Y001329D01*
X002498Y001320D02*
X002224Y001320D01*
X002224Y001312D02*
X002498Y001312D01*
X002498Y001303D02*
X002224Y001303D01*
X002224Y001295D02*
X002498Y001295D01*
X002498Y001286D02*
X002224Y001286D01*
X002224Y001278D02*
X002498Y001278D01*
X002498Y001269D02*
X002224Y001269D01*
X002224Y001261D02*
X002498Y001261D01*
X002498Y001252D02*
X002224Y001252D01*
X002224Y002026D02*
X003000Y002026D01*
X003000Y002034D02*
X002224Y002034D01*
X002224Y002043D02*
X003000Y002043D01*
X003000Y002051D02*
X002224Y002051D01*
X002224Y002060D02*
X003000Y002060D01*
X003000Y002068D02*
X002224Y002068D01*
X002224Y002077D02*
X003000Y002077D01*
X003000Y002085D02*
X002224Y002085D01*
X002224Y002094D02*
X003000Y002094D01*
X003000Y002102D02*
X002224Y002102D01*
X002224Y002111D02*
X003000Y002111D01*
X003000Y002119D02*
X002224Y002119D01*
X002224Y002128D02*
X003000Y002128D01*
X003000Y002136D02*
X002224Y002136D01*
X002224Y002145D02*
X003000Y002145D01*
X003000Y002153D02*
X002224Y002153D01*
X002224Y002162D02*
X003000Y002162D01*
X003000Y002170D02*
X002224Y002170D01*
M02*
