G75*
%MOIN*%
%OFA0B0*%
%FSLAX24Y24*%
%IPPOS*%
%LPD*%
%AMOC8*
5,1,8,0,0,1.08239X$1,22.5*
%
%ADD10C,0.0120*%
%ADD11C,0.0160*%
%ADD12C,0.0050*%
%ADD13C,0.0080*%
D10*
X003880Y003050D02*
X004480Y003050D01*
X004480Y006326D02*
X003880Y006326D01*
X003880Y009601D02*
X004480Y009601D01*
X004480Y012877D02*
X003880Y012877D01*
X003880Y016152D02*
X004480Y016152D01*
X004480Y019428D02*
X003880Y019428D01*
X003880Y022704D02*
X004480Y022704D01*
X004480Y025979D02*
X003880Y025979D01*
X003880Y029255D02*
X004480Y029255D01*
X004480Y032530D02*
X003880Y032530D01*
X003880Y035806D02*
X004480Y035806D01*
X004480Y039081D02*
X003880Y039081D01*
X009155Y039081D02*
X009755Y039081D01*
X009755Y035806D02*
X009155Y035806D01*
X009155Y032530D02*
X009755Y032530D01*
X009755Y029255D02*
X009155Y029255D01*
X009155Y025979D02*
X009755Y025979D01*
X009755Y022704D02*
X009155Y022704D01*
X009155Y019428D02*
X009755Y019428D01*
X009755Y016152D02*
X009155Y016152D01*
X009155Y012877D02*
X009755Y012877D01*
X009755Y009601D02*
X009155Y009601D01*
X009155Y006326D02*
X009755Y006326D01*
X009755Y003050D02*
X009155Y003050D01*
X014431Y003050D02*
X015031Y003050D01*
X015031Y006326D02*
X014431Y006326D01*
X014431Y009601D02*
X015031Y009601D01*
X015031Y012877D02*
X014431Y012877D01*
X014431Y016152D02*
X015031Y016152D01*
X015031Y019428D02*
X014431Y019428D01*
X014431Y022704D02*
X015031Y022704D01*
X015031Y025979D02*
X014431Y025979D01*
X014431Y029255D02*
X015031Y029255D01*
X015031Y032530D02*
X014431Y032530D01*
X014431Y035806D02*
X015031Y035806D01*
X015031Y039081D02*
X014431Y039081D01*
X019707Y039081D02*
X020307Y039081D01*
X020307Y035806D02*
X019707Y035806D01*
X019707Y032530D02*
X020307Y032530D01*
X020307Y029255D02*
X019707Y029255D01*
X019707Y025979D02*
X020307Y025979D01*
X020307Y022704D02*
X019707Y022704D01*
X019707Y019428D02*
X020307Y019428D01*
X020307Y016152D02*
X019707Y016152D01*
X019707Y012877D02*
X020307Y012877D01*
X020307Y009601D02*
X019707Y009601D01*
X019707Y006326D02*
X020307Y006326D01*
X020307Y003050D02*
X019707Y003050D01*
X024982Y003050D02*
X025582Y003050D01*
X025582Y006326D02*
X024982Y006326D01*
X024982Y009601D02*
X025582Y009601D01*
X025582Y012877D02*
X024982Y012877D01*
X024982Y016152D02*
X025582Y016152D01*
X025582Y019428D02*
X024982Y019428D01*
X024982Y022704D02*
X025582Y022704D01*
X025582Y025979D02*
X024982Y025979D01*
X024982Y029255D02*
X025582Y029255D01*
X025582Y032530D02*
X024982Y032530D01*
X024982Y035806D02*
X025582Y035806D01*
X025582Y039081D02*
X024982Y039081D01*
X030258Y039081D02*
X030858Y039081D01*
X030858Y035806D02*
X030258Y035806D01*
X030258Y032530D02*
X030858Y032530D01*
X030858Y029255D02*
X030258Y029255D01*
X030258Y025979D02*
X030858Y025979D01*
X030858Y022704D02*
X030258Y022704D01*
X030258Y019428D02*
X030858Y019428D01*
X030858Y016152D02*
X030258Y016152D01*
X030258Y012877D02*
X030858Y012877D01*
X030858Y009601D02*
X030258Y009601D01*
X030258Y006326D02*
X030858Y006326D01*
X030858Y003050D02*
X030258Y003050D01*
D11*
X030608Y003150D02*
X030608Y002950D01*
X030858Y003050D01*
X030608Y003150D01*
X030508Y003834D02*
X030508Y003858D01*
X030608Y006226D02*
X030608Y006426D01*
X030858Y006326D01*
X030608Y006226D01*
X030508Y007109D02*
X030508Y007133D01*
X030608Y009501D02*
X030608Y009701D01*
X030858Y009601D01*
X030608Y009501D01*
X030508Y010385D02*
X030508Y010409D01*
X030608Y012777D02*
X030608Y012977D01*
X030858Y012877D01*
X030608Y012777D01*
X030508Y013660D02*
X030508Y013684D01*
X030608Y016052D02*
X030608Y016252D01*
X030858Y016152D01*
X030608Y016052D01*
X030508Y016936D02*
X030508Y016960D01*
X030608Y019328D02*
X030608Y019528D01*
X030858Y019428D01*
X030608Y019328D01*
X030508Y020212D02*
X030508Y020236D01*
X030608Y022604D02*
X030608Y022804D01*
X030858Y022704D01*
X030608Y022604D01*
X030508Y023487D02*
X030508Y023511D01*
X030608Y025879D02*
X030608Y026079D01*
X030858Y025979D01*
X030608Y025879D01*
X030508Y026763D02*
X030508Y026787D01*
X030608Y029155D02*
X030608Y029355D01*
X030858Y029255D01*
X030608Y029155D01*
X030508Y030038D02*
X030508Y030062D01*
X030608Y032430D02*
X030608Y032630D01*
X030858Y032530D01*
X030608Y032430D01*
X030508Y033314D02*
X030508Y033338D01*
X030608Y035706D02*
X030608Y035906D01*
X030858Y035806D01*
X030608Y035706D01*
X030508Y036589D02*
X030508Y036614D01*
X030608Y038981D02*
X030608Y039181D01*
X030858Y039081D01*
X030608Y038981D01*
X025582Y039081D02*
X025332Y039181D01*
X025332Y038981D01*
X025582Y039081D01*
X025232Y036614D02*
X025232Y036589D01*
X025332Y035906D02*
X025332Y035706D01*
X025582Y035806D01*
X025332Y035906D01*
X025232Y033338D02*
X025232Y033314D01*
X025332Y032630D02*
X025332Y032430D01*
X025582Y032530D01*
X025332Y032630D01*
X025232Y030062D02*
X025232Y030038D01*
X025332Y029355D02*
X025332Y029155D01*
X025582Y029255D01*
X025332Y029355D01*
X025232Y026787D02*
X025232Y026763D01*
X025332Y026079D02*
X025332Y025879D01*
X025582Y025979D01*
X025332Y026079D01*
X025232Y023511D02*
X025232Y023487D01*
X025332Y022804D02*
X025332Y022604D01*
X025582Y022704D01*
X025332Y022804D01*
X025232Y020236D02*
X025232Y020212D01*
X025332Y019528D02*
X025332Y019328D01*
X025582Y019428D01*
X025332Y019528D01*
X025232Y016960D02*
X025232Y016936D01*
X025332Y016252D02*
X025332Y016052D01*
X025582Y016152D01*
X025332Y016252D01*
X025232Y013684D02*
X025232Y013660D01*
X025332Y012977D02*
X025332Y012777D01*
X025582Y012877D01*
X025332Y012977D01*
X025232Y010409D02*
X025232Y010385D01*
X025332Y009701D02*
X025332Y009501D01*
X025582Y009601D01*
X025332Y009701D01*
X025232Y007133D02*
X025232Y007109D01*
X025332Y006426D02*
X025332Y006226D01*
X025582Y006326D01*
X025332Y006426D01*
X025232Y003858D02*
X025232Y003834D01*
X025332Y003150D02*
X025332Y002950D01*
X025582Y003050D01*
X025332Y003150D01*
X025232Y000582D02*
X025232Y000558D01*
X020307Y003050D02*
X020057Y003150D01*
X020057Y002950D01*
X020307Y003050D01*
X019957Y003834D02*
X019957Y003858D01*
X020057Y006226D02*
X020057Y006426D01*
X020307Y006326D01*
X020057Y006226D01*
X019957Y007109D02*
X019957Y007133D01*
X020057Y009501D02*
X020057Y009701D01*
X020307Y009601D01*
X020057Y009501D01*
X019957Y010385D02*
X019957Y010409D01*
X020057Y012777D02*
X020057Y012977D01*
X020307Y012877D01*
X020057Y012777D01*
X019957Y013660D02*
X019957Y013684D01*
X020057Y016052D02*
X020057Y016252D01*
X020307Y016152D01*
X020057Y016052D01*
X019957Y016936D02*
X019957Y016960D01*
X020057Y019328D02*
X020057Y019528D01*
X020307Y019428D01*
X020057Y019328D01*
X019957Y020212D02*
X019957Y020236D01*
X020057Y022604D02*
X020057Y022804D01*
X020307Y022704D01*
X020057Y022604D01*
X019957Y023487D02*
X019957Y023511D01*
X020057Y025879D02*
X020057Y026079D01*
X020307Y025979D01*
X020057Y025879D01*
X019957Y026763D02*
X019957Y026787D01*
X020057Y029155D02*
X020057Y029355D01*
X020307Y029255D01*
X020057Y029155D01*
X019957Y030038D02*
X019957Y030062D01*
X020057Y032430D02*
X020057Y032630D01*
X020307Y032530D01*
X020057Y032430D01*
X019957Y033314D02*
X019957Y033338D01*
X020057Y035706D02*
X020057Y035906D01*
X020307Y035806D01*
X020057Y035706D01*
X019957Y036589D02*
X019957Y036614D01*
X020057Y038981D02*
X020057Y039181D01*
X020307Y039081D01*
X020057Y038981D01*
X015031Y039081D02*
X014781Y039181D01*
X014781Y038981D01*
X015031Y039081D01*
X014681Y036614D02*
X014681Y036589D01*
X014781Y035906D02*
X014781Y035706D01*
X015031Y035806D01*
X014781Y035906D01*
X014681Y033338D02*
X014681Y033314D01*
X014781Y032630D02*
X014781Y032430D01*
X015031Y032530D01*
X014781Y032630D01*
X014681Y030062D02*
X014681Y030038D01*
X014781Y029355D02*
X014781Y029155D01*
X015031Y029255D01*
X014781Y029355D01*
X014681Y026787D02*
X014681Y026763D01*
X014781Y026079D02*
X014781Y025879D01*
X015031Y025979D01*
X014781Y026079D01*
X014681Y023511D02*
X014681Y023487D01*
X014781Y022804D02*
X014781Y022604D01*
X015031Y022704D01*
X014781Y022804D01*
X014681Y020236D02*
X014681Y020212D01*
X014781Y019528D02*
X014781Y019328D01*
X015031Y019428D01*
X014781Y019528D01*
X014681Y016960D02*
X014681Y016936D01*
X014781Y016252D02*
X014781Y016052D01*
X015031Y016152D01*
X014781Y016252D01*
X014681Y013684D02*
X014681Y013660D01*
X014781Y012977D02*
X014781Y012777D01*
X015031Y012877D01*
X014781Y012977D01*
X014681Y010409D02*
X014681Y010385D01*
X014781Y009701D02*
X014781Y009501D01*
X015031Y009601D01*
X014781Y009701D01*
X014681Y007133D02*
X014681Y007109D01*
X014781Y006426D02*
X014781Y006226D01*
X015031Y006326D01*
X014781Y006426D01*
X014681Y003858D02*
X014681Y003834D01*
X014781Y003150D02*
X014781Y002950D01*
X015031Y003050D01*
X014781Y003150D01*
X014681Y000582D02*
X014681Y000558D01*
X009755Y003050D02*
X009505Y003150D01*
X009505Y002950D01*
X009755Y003050D01*
X009405Y003834D02*
X009405Y003858D01*
X009505Y006226D02*
X009505Y006426D01*
X009755Y006326D01*
X009505Y006226D01*
X009405Y007109D02*
X009405Y007133D01*
X009505Y009501D02*
X009505Y009701D01*
X009755Y009601D01*
X009505Y009501D01*
X009405Y010385D02*
X009405Y010409D01*
X009505Y012777D02*
X009505Y012977D01*
X009755Y012877D01*
X009505Y012777D01*
X009405Y013660D02*
X009405Y013684D01*
X009505Y016052D02*
X009505Y016252D01*
X009755Y016152D01*
X009505Y016052D01*
X009405Y016936D02*
X009405Y016960D01*
X009505Y019328D02*
X009505Y019528D01*
X009755Y019428D01*
X009505Y019328D01*
X009405Y020212D02*
X009405Y020236D01*
X009505Y022604D02*
X009505Y022804D01*
X009755Y022704D01*
X009505Y022604D01*
X009405Y023487D02*
X009405Y023511D01*
X009505Y025879D02*
X009505Y026079D01*
X009755Y025979D01*
X009505Y025879D01*
X009405Y026763D02*
X009405Y026787D01*
X009505Y029155D02*
X009505Y029355D01*
X009755Y029255D01*
X009505Y029155D01*
X009405Y030038D02*
X009405Y030062D01*
X009505Y032430D02*
X009505Y032630D01*
X009755Y032530D01*
X009505Y032430D01*
X009405Y033314D02*
X009405Y033338D01*
X009505Y035706D02*
X009505Y035906D01*
X009755Y035806D01*
X009505Y035706D01*
X009405Y036589D02*
X009405Y036614D01*
X009505Y038981D02*
X009505Y039181D01*
X009755Y039081D01*
X009505Y038981D01*
X004480Y039081D02*
X004230Y039181D01*
X004230Y038981D01*
X004480Y039081D01*
X004130Y036614D02*
X004130Y036589D01*
X004230Y035906D02*
X004230Y035706D01*
X004480Y035806D01*
X004230Y035906D01*
X004130Y033338D02*
X004130Y033314D01*
X004230Y032630D02*
X004230Y032430D01*
X004480Y032530D01*
X004230Y032630D01*
X004130Y030062D02*
X004130Y030038D01*
X004230Y029355D02*
X004230Y029155D01*
X004480Y029255D01*
X004230Y029355D01*
X004130Y026787D02*
X004130Y026763D01*
X004230Y026079D02*
X004230Y025879D01*
X004480Y025979D01*
X004230Y026079D01*
X004130Y023511D02*
X004130Y023487D01*
X004230Y022804D02*
X004230Y022604D01*
X004480Y022704D01*
X004230Y022804D01*
X004130Y020236D02*
X004130Y020212D01*
X004230Y019528D02*
X004230Y019328D01*
X004480Y019428D01*
X004230Y019528D01*
X004130Y016960D02*
X004130Y016936D01*
X004230Y016252D02*
X004230Y016052D01*
X004480Y016152D01*
X004230Y016252D01*
X004130Y013684D02*
X004130Y013660D01*
X004230Y012977D02*
X004230Y012777D01*
X004480Y012877D01*
X004230Y012977D01*
X004130Y010409D02*
X004130Y010385D01*
X004230Y009701D02*
X004230Y009501D01*
X004480Y009601D01*
X004230Y009701D01*
X004130Y007133D02*
X004130Y007109D01*
X004230Y006426D02*
X004230Y006226D01*
X004480Y006326D01*
X004230Y006426D01*
X004130Y003858D02*
X004130Y003834D01*
X004230Y003150D02*
X004230Y002950D01*
X004480Y003050D01*
X004230Y003150D01*
X004130Y000582D02*
X004130Y000558D01*
X009405Y000558D02*
X009405Y000582D01*
X019957Y000558D02*
X019957Y000582D01*
X030508Y000558D02*
X030508Y000582D01*
D12*
X029533Y000550D02*
X029233Y000550D01*
X031583Y000550D02*
X031883Y000550D01*
X031733Y000700D02*
X031733Y000400D01*
X031733Y003676D02*
X031733Y003976D01*
X031583Y003826D02*
X031883Y003826D01*
X029533Y003826D02*
X029233Y003826D01*
X026607Y003826D02*
X026307Y003826D01*
X026457Y003976D02*
X026457Y003676D01*
X024257Y003826D02*
X023957Y003826D01*
X021332Y003826D02*
X021032Y003826D01*
X021182Y003976D02*
X021182Y003676D01*
X018982Y003826D02*
X018682Y003826D01*
X016056Y003826D02*
X015756Y003826D01*
X015906Y003976D02*
X015906Y003676D01*
X013706Y003826D02*
X013406Y003826D01*
X010781Y003826D02*
X010480Y003826D01*
X010631Y003976D02*
X010631Y003676D01*
X008431Y003826D02*
X008130Y003826D01*
X005505Y003826D02*
X005205Y003826D01*
X005355Y003976D02*
X005355Y003676D01*
X003155Y003826D02*
X002855Y003826D01*
X002855Y007101D02*
X003155Y007101D01*
X005205Y007101D02*
X005505Y007101D01*
X005355Y007252D02*
X005355Y006951D01*
X008130Y007101D02*
X008431Y007101D01*
X010480Y007101D02*
X010781Y007101D01*
X010631Y007252D02*
X010631Y006951D01*
X013406Y007101D02*
X013706Y007101D01*
X015756Y007101D02*
X016056Y007101D01*
X015906Y007252D02*
X015906Y006951D01*
X018682Y007101D02*
X018982Y007101D01*
X021032Y007101D02*
X021332Y007101D01*
X021182Y007252D02*
X021182Y006951D01*
X023957Y007101D02*
X024257Y007101D01*
X026307Y007101D02*
X026607Y007101D01*
X026457Y007252D02*
X026457Y006951D01*
X029233Y007101D02*
X029533Y007101D01*
X031583Y007101D02*
X031883Y007101D01*
X031733Y007252D02*
X031733Y006951D01*
X031733Y010227D02*
X031733Y010527D01*
X031583Y010377D02*
X031883Y010377D01*
X029533Y010377D02*
X029233Y010377D01*
X026607Y010377D02*
X026307Y010377D01*
X026457Y010527D02*
X026457Y010227D01*
X024257Y010377D02*
X023957Y010377D01*
X021332Y010377D02*
X021032Y010377D01*
X021182Y010527D02*
X021182Y010227D01*
X018982Y010377D02*
X018682Y010377D01*
X016056Y010377D02*
X015756Y010377D01*
X015906Y010527D02*
X015906Y010227D01*
X013706Y010377D02*
X013406Y010377D01*
X010781Y010377D02*
X010480Y010377D01*
X010631Y010527D02*
X010631Y010227D01*
X008431Y010377D02*
X008130Y010377D01*
X005505Y010377D02*
X005205Y010377D01*
X005355Y010527D02*
X005355Y010227D01*
X003155Y010377D02*
X002855Y010377D01*
X002855Y013653D02*
X003155Y013653D01*
X005205Y013653D02*
X005505Y013653D01*
X005355Y013803D02*
X005355Y013502D01*
X008130Y013653D02*
X008431Y013653D01*
X010480Y013653D02*
X010781Y013653D01*
X010631Y013803D02*
X010631Y013502D01*
X013406Y013653D02*
X013706Y013653D01*
X015756Y013653D02*
X016056Y013653D01*
X015906Y013803D02*
X015906Y013502D01*
X018682Y013653D02*
X018982Y013653D01*
X021032Y013653D02*
X021332Y013653D01*
X021182Y013803D02*
X021182Y013502D01*
X023957Y013653D02*
X024257Y013653D01*
X026307Y013653D02*
X026607Y013653D01*
X026457Y013803D02*
X026457Y013502D01*
X029233Y013653D02*
X029533Y013653D01*
X031583Y013653D02*
X031883Y013653D01*
X031733Y013803D02*
X031733Y013502D01*
X031733Y016778D02*
X031733Y017078D01*
X031583Y016928D02*
X031883Y016928D01*
X029533Y016928D02*
X029233Y016928D01*
X026607Y016928D02*
X026307Y016928D01*
X026457Y017078D02*
X026457Y016778D01*
X024257Y016928D02*
X023957Y016928D01*
X021332Y016928D02*
X021032Y016928D01*
X021182Y017078D02*
X021182Y016778D01*
X018982Y016928D02*
X018682Y016928D01*
X016056Y016928D02*
X015756Y016928D01*
X015906Y017078D02*
X015906Y016778D01*
X013706Y016928D02*
X013406Y016928D01*
X010781Y016928D02*
X010480Y016928D01*
X010631Y017078D02*
X010631Y016778D01*
X008431Y016928D02*
X008130Y016928D01*
X005505Y016928D02*
X005205Y016928D01*
X005355Y017078D02*
X005355Y016778D01*
X003155Y016928D02*
X002855Y016928D01*
X005355Y020054D02*
X005355Y020354D01*
X005205Y020204D02*
X005505Y020204D01*
X003155Y020204D02*
X002855Y020204D01*
X002855Y023479D02*
X003155Y023479D01*
X005205Y023479D02*
X005505Y023479D01*
X005355Y023629D02*
X005355Y023329D01*
X008130Y023479D02*
X008431Y023479D01*
X010480Y023479D02*
X010781Y023479D01*
X010631Y023629D02*
X010631Y023329D01*
X013406Y023479D02*
X013706Y023479D01*
X015756Y023479D02*
X016056Y023479D01*
X015906Y023629D02*
X015906Y023329D01*
X018682Y023479D02*
X018982Y023479D01*
X021032Y023479D02*
X021332Y023479D01*
X021182Y023629D02*
X021182Y023329D01*
X023957Y023479D02*
X024257Y023479D01*
X026307Y023479D02*
X026607Y023479D01*
X026457Y023629D02*
X026457Y023329D01*
X029233Y023479D02*
X029533Y023479D01*
X031583Y023479D02*
X031883Y023479D01*
X031733Y023629D02*
X031733Y023329D01*
X031733Y020354D02*
X031733Y020054D01*
X031583Y020204D02*
X031883Y020204D01*
X029533Y020204D02*
X029233Y020204D01*
X026607Y020204D02*
X026307Y020204D01*
X026457Y020354D02*
X026457Y020054D01*
X024257Y020204D02*
X023957Y020204D01*
X021332Y020204D02*
X021032Y020204D01*
X021182Y020354D02*
X021182Y020054D01*
X018982Y020204D02*
X018682Y020204D01*
X016056Y020204D02*
X015756Y020204D01*
X015906Y020354D02*
X015906Y020054D01*
X013706Y020204D02*
X013406Y020204D01*
X010781Y020204D02*
X010480Y020204D01*
X010631Y020354D02*
X010631Y020054D01*
X008431Y020204D02*
X008130Y020204D01*
X008130Y026755D02*
X008431Y026755D01*
X010480Y026755D02*
X010781Y026755D01*
X010631Y026905D02*
X010631Y026605D01*
X013406Y026755D02*
X013706Y026755D01*
X015756Y026755D02*
X016056Y026755D01*
X015906Y026905D02*
X015906Y026605D01*
X018682Y026755D02*
X018982Y026755D01*
X021032Y026755D02*
X021332Y026755D01*
X021182Y026905D02*
X021182Y026605D01*
X023957Y026755D02*
X024257Y026755D01*
X026307Y026755D02*
X026607Y026755D01*
X026457Y026905D02*
X026457Y026605D01*
X029233Y026755D02*
X029533Y026755D01*
X031583Y026755D02*
X031883Y026755D01*
X031733Y026905D02*
X031733Y026605D01*
X031733Y029880D02*
X031733Y030181D01*
X031583Y030031D02*
X031883Y030031D01*
X029533Y030031D02*
X029233Y030031D01*
X031733Y033156D02*
X031733Y033456D01*
X031583Y033306D02*
X031883Y033306D01*
X029533Y033306D02*
X029233Y033306D01*
X026607Y033306D02*
X026307Y033306D01*
X026457Y033456D02*
X026457Y033156D01*
X024257Y033306D02*
X023957Y033306D01*
X021332Y033306D02*
X021032Y033306D01*
X021182Y033456D02*
X021182Y033156D01*
X018982Y033306D02*
X018682Y033306D01*
X016056Y033306D02*
X015756Y033306D01*
X015906Y033456D02*
X015906Y033156D01*
X013706Y033306D02*
X013406Y033306D01*
X010781Y033306D02*
X010480Y033306D01*
X010631Y033456D02*
X010631Y033156D01*
X008431Y033306D02*
X008130Y033306D01*
X005505Y033306D02*
X005205Y033306D01*
X005355Y033456D02*
X005355Y033156D01*
X003155Y033306D02*
X002855Y033306D01*
X002855Y030031D02*
X003155Y030031D01*
X005205Y030031D02*
X005505Y030031D01*
X005355Y030181D02*
X005355Y029880D01*
X005355Y026905D02*
X005355Y026605D01*
X005205Y026755D02*
X005505Y026755D01*
X003155Y026755D02*
X002855Y026755D01*
X008130Y030031D02*
X008431Y030031D01*
X010480Y030031D02*
X010781Y030031D01*
X010631Y030181D02*
X010631Y029880D01*
X013406Y030031D02*
X013706Y030031D01*
X015756Y030031D02*
X016056Y030031D01*
X015906Y030181D02*
X015906Y029880D01*
X018682Y030031D02*
X018982Y030031D01*
X021032Y030031D02*
X021332Y030031D01*
X021182Y030181D02*
X021182Y029880D01*
X023957Y030031D02*
X024257Y030031D01*
X026307Y030031D02*
X026607Y030031D01*
X026457Y030181D02*
X026457Y029880D01*
X026457Y036432D02*
X026457Y036732D01*
X026307Y036582D02*
X026607Y036582D01*
X024257Y036582D02*
X023957Y036582D01*
X021332Y036582D02*
X021032Y036582D01*
X021182Y036732D02*
X021182Y036432D01*
X018982Y036582D02*
X018682Y036582D01*
X016056Y036582D02*
X015756Y036582D01*
X015906Y036732D02*
X015906Y036432D01*
X013706Y036582D02*
X013406Y036582D01*
X010781Y036582D02*
X010480Y036582D01*
X010631Y036732D02*
X010631Y036432D01*
X008431Y036582D02*
X008130Y036582D01*
X005505Y036582D02*
X005205Y036582D01*
X005355Y036732D02*
X005355Y036432D01*
X003155Y036582D02*
X002855Y036582D01*
X029233Y036582D02*
X029533Y036582D01*
X031583Y036582D02*
X031883Y036582D01*
X031733Y036732D02*
X031733Y036432D01*
X026457Y000700D02*
X026457Y000400D01*
X026307Y000550D02*
X026607Y000550D01*
X024257Y000550D02*
X023957Y000550D01*
X021332Y000550D02*
X021032Y000550D01*
X021182Y000700D02*
X021182Y000400D01*
X018982Y000550D02*
X018682Y000550D01*
X016056Y000550D02*
X015756Y000550D01*
X015906Y000700D02*
X015906Y000400D01*
X013706Y000550D02*
X013406Y000550D01*
X010781Y000550D02*
X010480Y000550D01*
X010631Y000700D02*
X010631Y000400D01*
X008431Y000550D02*
X008130Y000550D01*
X005505Y000550D02*
X005205Y000550D01*
X005355Y000700D02*
X005355Y000400D01*
X003155Y000550D02*
X002855Y000550D01*
D13*
X002680Y000300D02*
X001680Y000300D01*
X001680Y003300D01*
X002680Y003300D01*
X002680Y000300D01*
X003786Y000836D02*
X004574Y000836D01*
X005164Y001466D02*
X005164Y001544D01*
X005164Y002096D02*
X005164Y002174D01*
X004380Y001870D02*
X004380Y001770D01*
X004280Y001770D01*
X004280Y001870D01*
X004380Y001870D01*
X004130Y001970D02*
X004130Y001670D01*
X003780Y001670D01*
X003780Y001970D01*
X004130Y001970D01*
X003816Y002607D02*
X003818Y002625D01*
X003824Y002643D01*
X003833Y002659D01*
X003845Y002672D01*
X003860Y002683D01*
X003877Y002691D01*
X003895Y002695D01*
X003913Y002695D01*
X003931Y002691D01*
X003948Y002683D01*
X003963Y002672D01*
X003975Y002659D01*
X003984Y002643D01*
X003990Y002625D01*
X003992Y002607D01*
X003990Y002589D01*
X003984Y002571D01*
X003975Y002555D01*
X003963Y002542D01*
X003948Y002531D01*
X003931Y002523D01*
X003913Y002519D01*
X003895Y002519D01*
X003877Y002523D01*
X003860Y002531D01*
X003845Y002542D01*
X003833Y002555D01*
X003824Y002571D01*
X003818Y002589D01*
X003816Y002607D01*
X003786Y002804D02*
X004574Y002804D01*
X005680Y003300D02*
X006680Y003300D01*
X006680Y000300D01*
X005680Y000300D01*
X005680Y003300D01*
X005680Y003576D02*
X006680Y003576D01*
X006680Y006576D01*
X005680Y006576D01*
X005680Y003576D01*
X004574Y004111D02*
X003786Y004111D01*
X003780Y004946D02*
X004130Y004946D01*
X004130Y005246D01*
X003780Y005246D01*
X003780Y004946D01*
X003196Y004820D02*
X003196Y004741D01*
X003196Y005371D02*
X003196Y005450D01*
X002880Y005576D02*
X002880Y005876D01*
X002680Y006576D02*
X001680Y006576D01*
X001680Y003576D01*
X002680Y003576D01*
X002680Y006576D01*
X002680Y006851D02*
X001680Y006851D01*
X001680Y009851D01*
X002680Y009851D01*
X002680Y006851D01*
X003786Y007387D02*
X004574Y007387D01*
X005164Y008017D02*
X005164Y008096D01*
X005164Y008647D02*
X005164Y008726D01*
X004574Y009355D02*
X003786Y009355D01*
X003816Y009159D02*
X003818Y009177D01*
X003824Y009195D01*
X003833Y009211D01*
X003845Y009224D01*
X003860Y009235D01*
X003877Y009243D01*
X003895Y009247D01*
X003913Y009247D01*
X003931Y009243D01*
X003948Y009235D01*
X003963Y009224D01*
X003975Y009211D01*
X003984Y009195D01*
X003990Y009177D01*
X003992Y009159D01*
X003990Y009141D01*
X003984Y009123D01*
X003975Y009107D01*
X003963Y009094D01*
X003948Y009083D01*
X003931Y009075D01*
X003913Y009071D01*
X003895Y009071D01*
X003877Y009075D01*
X003860Y009083D01*
X003845Y009094D01*
X003833Y009107D01*
X003824Y009123D01*
X003818Y009141D01*
X003816Y009159D01*
X003196Y008726D02*
X003196Y008647D01*
X002880Y008851D02*
X002880Y009151D01*
X002680Y010127D02*
X001680Y010127D01*
X001680Y013127D01*
X002680Y013127D01*
X002680Y010127D01*
X003786Y010663D02*
X004574Y010663D01*
X005164Y011292D02*
X005164Y011371D01*
X005164Y011922D02*
X005164Y012001D01*
X004574Y012631D02*
X003786Y012631D01*
X003816Y012434D02*
X003818Y012452D01*
X003824Y012470D01*
X003833Y012486D01*
X003845Y012499D01*
X003860Y012510D01*
X003877Y012518D01*
X003895Y012522D01*
X003913Y012522D01*
X003931Y012518D01*
X003948Y012510D01*
X003963Y012499D01*
X003975Y012486D01*
X003984Y012470D01*
X003990Y012452D01*
X003992Y012434D01*
X003990Y012416D01*
X003984Y012398D01*
X003975Y012382D01*
X003963Y012369D01*
X003948Y012358D01*
X003931Y012350D01*
X003913Y012346D01*
X003895Y012346D01*
X003877Y012350D01*
X003860Y012358D01*
X003845Y012369D01*
X003833Y012382D01*
X003824Y012398D01*
X003818Y012416D01*
X003816Y012434D01*
X003196Y012001D02*
X003196Y011922D01*
X002880Y012127D02*
X002880Y012427D01*
X002680Y013402D02*
X001680Y013402D01*
X001680Y016402D01*
X002680Y016402D01*
X002680Y013402D01*
X003786Y013938D02*
X004574Y013938D01*
X005164Y014568D02*
X005164Y014647D01*
X005164Y015198D02*
X005164Y015277D01*
X004380Y014972D02*
X004380Y014872D01*
X004280Y014872D01*
X004280Y014972D01*
X004380Y014972D01*
X004130Y015072D02*
X004130Y014772D01*
X003780Y014772D01*
X003780Y015072D01*
X004130Y015072D01*
X003816Y015710D02*
X003818Y015728D01*
X003824Y015746D01*
X003833Y015762D01*
X003845Y015775D01*
X003860Y015786D01*
X003877Y015794D01*
X003895Y015798D01*
X003913Y015798D01*
X003931Y015794D01*
X003948Y015786D01*
X003963Y015775D01*
X003975Y015762D01*
X003984Y015746D01*
X003990Y015728D01*
X003992Y015710D01*
X003990Y015692D01*
X003984Y015674D01*
X003975Y015658D01*
X003963Y015645D01*
X003948Y015634D01*
X003931Y015626D01*
X003913Y015622D01*
X003895Y015622D01*
X003877Y015626D01*
X003860Y015634D01*
X003845Y015645D01*
X003833Y015658D01*
X003824Y015674D01*
X003818Y015692D01*
X003816Y015710D01*
X003786Y015907D02*
X004574Y015907D01*
X005680Y016402D02*
X006680Y016402D01*
X006680Y013402D01*
X005680Y013402D01*
X005680Y016402D01*
X005680Y016678D02*
X006680Y016678D01*
X006680Y019678D01*
X005680Y019678D01*
X005680Y016678D01*
X004574Y017214D02*
X003786Y017214D01*
X003780Y018048D02*
X004130Y018048D01*
X004130Y018348D01*
X003780Y018348D01*
X003780Y018048D01*
X003196Y017922D02*
X003196Y017844D01*
X003196Y018474D02*
X003196Y018552D01*
X002880Y018678D02*
X002880Y018978D01*
X002680Y019678D02*
X001680Y019678D01*
X001680Y016678D01*
X002680Y016678D01*
X002680Y019678D01*
X002680Y019954D02*
X001680Y019954D01*
X001680Y022954D01*
X002680Y022954D01*
X002680Y019954D01*
X003786Y020489D02*
X004574Y020489D01*
X005164Y021119D02*
X005164Y021198D01*
X005164Y021749D02*
X005164Y021828D01*
X004574Y022458D02*
X003786Y022458D01*
X003816Y022261D02*
X003818Y022279D01*
X003824Y022297D01*
X003833Y022313D01*
X003845Y022326D01*
X003860Y022337D01*
X003877Y022345D01*
X003895Y022349D01*
X003913Y022349D01*
X003931Y022345D01*
X003948Y022337D01*
X003963Y022326D01*
X003975Y022313D01*
X003984Y022297D01*
X003990Y022279D01*
X003992Y022261D01*
X003990Y022243D01*
X003984Y022225D01*
X003975Y022209D01*
X003963Y022196D01*
X003948Y022185D01*
X003931Y022177D01*
X003913Y022173D01*
X003895Y022173D01*
X003877Y022177D01*
X003860Y022185D01*
X003845Y022196D01*
X003833Y022209D01*
X003824Y022225D01*
X003818Y022243D01*
X003816Y022261D01*
X003196Y021828D02*
X003196Y021749D01*
X002880Y021954D02*
X002880Y022254D01*
X002680Y023229D02*
X001680Y023229D01*
X001680Y026229D01*
X002680Y026229D01*
X002680Y023229D01*
X003786Y023765D02*
X004574Y023765D01*
X005164Y024395D02*
X005164Y024474D01*
X005164Y025025D02*
X005164Y025103D01*
X004380Y024799D02*
X004380Y024699D01*
X004280Y024699D01*
X004280Y024799D01*
X004380Y024799D01*
X004130Y024899D02*
X004130Y024599D01*
X003780Y024599D01*
X003780Y024899D01*
X004130Y024899D01*
X003816Y025537D02*
X003818Y025555D01*
X003824Y025573D01*
X003833Y025589D01*
X003845Y025602D01*
X003860Y025613D01*
X003877Y025621D01*
X003895Y025625D01*
X003913Y025625D01*
X003931Y025621D01*
X003948Y025613D01*
X003963Y025602D01*
X003975Y025589D01*
X003984Y025573D01*
X003990Y025555D01*
X003992Y025537D01*
X003990Y025519D01*
X003984Y025501D01*
X003975Y025485D01*
X003963Y025472D01*
X003948Y025461D01*
X003931Y025453D01*
X003913Y025449D01*
X003895Y025449D01*
X003877Y025453D01*
X003860Y025461D01*
X003845Y025472D01*
X003833Y025485D01*
X003824Y025501D01*
X003818Y025519D01*
X003816Y025537D01*
X003786Y025733D02*
X004574Y025733D01*
X005680Y026229D02*
X006680Y026229D01*
X006680Y023229D01*
X005680Y023229D01*
X005680Y026229D01*
X005680Y026505D02*
X006680Y026505D01*
X006680Y029505D01*
X005680Y029505D01*
X005680Y026505D01*
X004574Y027040D02*
X003786Y027040D01*
X003780Y027875D02*
X004130Y027875D01*
X004130Y028175D01*
X003780Y028175D01*
X003780Y027875D01*
X003196Y027749D02*
X003196Y027670D01*
X003196Y028300D02*
X003196Y028379D01*
X002880Y028505D02*
X002880Y028805D01*
X002680Y029505D02*
X001680Y029505D01*
X001680Y026505D01*
X002680Y026505D01*
X002680Y029505D01*
X002680Y029780D02*
X001680Y029780D01*
X001680Y032780D01*
X002680Y032780D01*
X002680Y029780D01*
X003786Y030316D02*
X004574Y030316D01*
X005164Y030946D02*
X005164Y031025D01*
X005164Y031576D02*
X005164Y031655D01*
X004574Y032285D02*
X003786Y032285D01*
X003816Y032088D02*
X003818Y032106D01*
X003824Y032124D01*
X003833Y032140D01*
X003845Y032153D01*
X003860Y032164D01*
X003877Y032172D01*
X003895Y032176D01*
X003913Y032176D01*
X003931Y032172D01*
X003948Y032164D01*
X003963Y032153D01*
X003975Y032140D01*
X003984Y032124D01*
X003990Y032106D01*
X003992Y032088D01*
X003990Y032070D01*
X003984Y032052D01*
X003975Y032036D01*
X003963Y032023D01*
X003948Y032012D01*
X003931Y032004D01*
X003913Y032000D01*
X003895Y032000D01*
X003877Y032004D01*
X003860Y032012D01*
X003845Y032023D01*
X003833Y032036D01*
X003824Y032052D01*
X003818Y032070D01*
X003816Y032088D01*
X003196Y031655D02*
X003196Y031576D01*
X002880Y031780D02*
X002880Y032080D01*
X002680Y033056D02*
X001680Y033056D01*
X001680Y036056D01*
X002680Y036056D01*
X002680Y033056D01*
X003786Y033592D02*
X004574Y033592D01*
X005164Y034222D02*
X005164Y034300D01*
X005164Y034851D02*
X005164Y034930D01*
X004380Y034626D02*
X004380Y034526D01*
X004280Y034526D01*
X004280Y034626D01*
X004380Y034626D01*
X004130Y034726D02*
X004130Y034426D01*
X003780Y034426D01*
X003780Y034726D01*
X004130Y034726D01*
X003816Y035363D02*
X003818Y035381D01*
X003824Y035399D01*
X003833Y035415D01*
X003845Y035428D01*
X003860Y035439D01*
X003877Y035447D01*
X003895Y035451D01*
X003913Y035451D01*
X003931Y035447D01*
X003948Y035439D01*
X003963Y035428D01*
X003975Y035415D01*
X003984Y035399D01*
X003990Y035381D01*
X003992Y035363D01*
X003990Y035345D01*
X003984Y035327D01*
X003975Y035311D01*
X003963Y035298D01*
X003948Y035287D01*
X003931Y035279D01*
X003913Y035275D01*
X003895Y035275D01*
X003877Y035279D01*
X003860Y035287D01*
X003845Y035298D01*
X003833Y035311D01*
X003824Y035327D01*
X003818Y035345D01*
X003816Y035363D01*
X003786Y035560D02*
X004574Y035560D01*
X005680Y036056D02*
X006680Y036056D01*
X006680Y033056D01*
X005680Y033056D01*
X005680Y036056D01*
X005680Y036331D02*
X006680Y036331D01*
X006680Y039331D01*
X005680Y039331D01*
X005680Y036331D01*
X005164Y037497D02*
X005164Y037576D01*
X005164Y038127D02*
X005164Y038206D01*
X004380Y037901D02*
X004380Y037801D01*
X004280Y037801D01*
X004280Y037901D01*
X004380Y037901D01*
X004130Y038001D02*
X004130Y037701D01*
X003780Y037701D01*
X003780Y038001D01*
X004130Y038001D01*
X003816Y038639D02*
X003818Y038657D01*
X003824Y038675D01*
X003833Y038691D01*
X003845Y038704D01*
X003860Y038715D01*
X003877Y038723D01*
X003895Y038727D01*
X003913Y038727D01*
X003931Y038723D01*
X003948Y038715D01*
X003963Y038704D01*
X003975Y038691D01*
X003984Y038675D01*
X003990Y038657D01*
X003992Y038639D01*
X003990Y038621D01*
X003984Y038603D01*
X003975Y038587D01*
X003963Y038574D01*
X003948Y038563D01*
X003931Y038555D01*
X003913Y038551D01*
X003895Y038551D01*
X003877Y038555D01*
X003860Y038563D01*
X003845Y038574D01*
X003833Y038587D01*
X003824Y038603D01*
X003818Y038621D01*
X003816Y038639D01*
X003786Y038836D02*
X004574Y038836D01*
X003196Y038206D02*
X003196Y038127D01*
X002880Y038331D02*
X002880Y038631D01*
X002680Y039331D02*
X001680Y039331D01*
X001680Y036331D01*
X002680Y036331D01*
X002680Y039331D01*
X003196Y037576D02*
X003196Y037497D01*
X003786Y036867D02*
X004574Y036867D01*
X002880Y035356D02*
X002880Y035056D01*
X003196Y034930D02*
X003196Y034851D01*
X003196Y034300D02*
X003196Y034222D01*
X003780Y031450D02*
X004130Y031450D01*
X004130Y031150D01*
X003780Y031150D01*
X003780Y031450D01*
X003196Y031025D02*
X003196Y030946D01*
X004280Y031250D02*
X004380Y031250D01*
X004380Y031350D01*
X004280Y031350D01*
X004280Y031250D01*
X005680Y029780D02*
X006680Y029780D01*
X006680Y032780D01*
X005680Y032780D01*
X005680Y029780D01*
X004574Y029009D02*
X003786Y029009D01*
X003816Y028812D02*
X003818Y028830D01*
X003824Y028848D01*
X003833Y028864D01*
X003845Y028877D01*
X003860Y028888D01*
X003877Y028896D01*
X003895Y028900D01*
X003913Y028900D01*
X003931Y028896D01*
X003948Y028888D01*
X003963Y028877D01*
X003975Y028864D01*
X003984Y028848D01*
X003990Y028830D01*
X003992Y028812D01*
X003990Y028794D01*
X003984Y028776D01*
X003975Y028760D01*
X003963Y028747D01*
X003948Y028736D01*
X003931Y028728D01*
X003913Y028724D01*
X003895Y028724D01*
X003877Y028728D01*
X003860Y028736D01*
X003845Y028747D01*
X003833Y028760D01*
X003824Y028776D01*
X003818Y028794D01*
X003816Y028812D01*
X004280Y028075D02*
X004280Y027975D01*
X004380Y027975D01*
X004380Y028075D01*
X004280Y028075D01*
X005164Y028300D02*
X005164Y028379D01*
X005164Y027749D02*
X005164Y027670D01*
X006955Y026505D02*
X007955Y026505D01*
X007955Y029505D01*
X006955Y029505D01*
X006955Y026505D01*
X006955Y026229D02*
X007955Y026229D01*
X007955Y023229D01*
X006955Y023229D01*
X006955Y026229D01*
X008155Y025529D02*
X008155Y025229D01*
X008471Y025103D02*
X008471Y025025D01*
X008471Y024474D02*
X008471Y024395D01*
X009055Y024599D02*
X009055Y024899D01*
X009405Y024899D01*
X009405Y024599D01*
X009055Y024599D01*
X009555Y024699D02*
X009655Y024699D01*
X009655Y024799D01*
X009555Y024799D01*
X009555Y024699D01*
X009092Y025537D02*
X009094Y025555D01*
X009100Y025573D01*
X009109Y025589D01*
X009121Y025602D01*
X009136Y025613D01*
X009153Y025621D01*
X009171Y025625D01*
X009189Y025625D01*
X009207Y025621D01*
X009224Y025613D01*
X009239Y025602D01*
X009251Y025589D01*
X009260Y025573D01*
X009266Y025555D01*
X009268Y025537D01*
X009266Y025519D01*
X009260Y025501D01*
X009251Y025485D01*
X009239Y025472D01*
X009224Y025461D01*
X009207Y025453D01*
X009189Y025449D01*
X009171Y025449D01*
X009153Y025453D01*
X009136Y025461D01*
X009121Y025472D01*
X009109Y025485D01*
X009100Y025501D01*
X009094Y025519D01*
X009092Y025537D01*
X009062Y025733D02*
X009849Y025733D01*
X010440Y025103D02*
X010440Y025025D01*
X010440Y024474D02*
X010440Y024395D01*
X009849Y023765D02*
X009062Y023765D01*
X009062Y022458D02*
X009849Y022458D01*
X009092Y022261D02*
X009094Y022279D01*
X009100Y022297D01*
X009109Y022313D01*
X009121Y022326D01*
X009136Y022337D01*
X009153Y022345D01*
X009171Y022349D01*
X009189Y022349D01*
X009207Y022345D01*
X009224Y022337D01*
X009239Y022326D01*
X009251Y022313D01*
X009260Y022297D01*
X009266Y022279D01*
X009268Y022261D01*
X009266Y022243D01*
X009260Y022225D01*
X009251Y022209D01*
X009239Y022196D01*
X009224Y022185D01*
X009207Y022177D01*
X009189Y022173D01*
X009171Y022173D01*
X009153Y022177D01*
X009136Y022185D01*
X009121Y022196D01*
X009109Y022209D01*
X009100Y022225D01*
X009094Y022243D01*
X009092Y022261D01*
X009055Y021624D02*
X009405Y021624D01*
X009405Y021324D01*
X009055Y021324D01*
X009055Y021624D01*
X009555Y021524D02*
X009655Y021524D01*
X009655Y021424D01*
X009555Y021424D01*
X009555Y021524D01*
X010440Y021749D02*
X010440Y021828D01*
X010440Y021198D02*
X010440Y021119D01*
X009849Y020489D02*
X009062Y020489D01*
X008471Y021119D02*
X008471Y021198D01*
X008471Y021749D02*
X008471Y021828D01*
X008155Y021954D02*
X008155Y022254D01*
X007955Y022954D02*
X006955Y022954D01*
X006955Y019954D01*
X007955Y019954D01*
X007955Y022954D01*
X006680Y022954D02*
X005680Y022954D01*
X005680Y019954D01*
X006680Y019954D01*
X006680Y022954D01*
X004380Y021524D02*
X004380Y021424D01*
X004280Y021424D01*
X004280Y021524D01*
X004380Y021524D01*
X004130Y021624D02*
X004130Y021324D01*
X003780Y021324D01*
X003780Y021624D01*
X004130Y021624D01*
X003196Y021198D02*
X003196Y021119D01*
X003786Y019182D02*
X004574Y019182D01*
X003816Y018985D02*
X003818Y019003D01*
X003824Y019021D01*
X003833Y019037D01*
X003845Y019050D01*
X003860Y019061D01*
X003877Y019069D01*
X003895Y019073D01*
X003913Y019073D01*
X003931Y019069D01*
X003948Y019061D01*
X003963Y019050D01*
X003975Y019037D01*
X003984Y019021D01*
X003990Y019003D01*
X003992Y018985D01*
X003990Y018967D01*
X003984Y018949D01*
X003975Y018933D01*
X003963Y018920D01*
X003948Y018909D01*
X003931Y018901D01*
X003913Y018897D01*
X003895Y018897D01*
X003877Y018901D01*
X003860Y018909D01*
X003845Y018920D01*
X003833Y018933D01*
X003824Y018949D01*
X003818Y018967D01*
X003816Y018985D01*
X004280Y018248D02*
X004380Y018248D01*
X004380Y018148D01*
X004280Y018148D01*
X004280Y018248D01*
X005164Y018474D02*
X005164Y018552D01*
X005164Y017922D02*
X005164Y017844D01*
X006955Y016678D02*
X007955Y016678D01*
X007955Y019678D01*
X006955Y019678D01*
X006955Y016678D01*
X006955Y016402D02*
X007955Y016402D01*
X007955Y013402D01*
X006955Y013402D01*
X006955Y016402D01*
X008155Y015702D02*
X008155Y015402D01*
X008471Y015277D02*
X008471Y015198D01*
X008471Y014647D02*
X008471Y014568D01*
X009055Y014772D02*
X009055Y015072D01*
X009405Y015072D01*
X009405Y014772D01*
X009055Y014772D01*
X009555Y014872D02*
X009655Y014872D01*
X009655Y014972D01*
X009555Y014972D01*
X009555Y014872D01*
X009092Y015710D02*
X009094Y015728D01*
X009100Y015746D01*
X009109Y015762D01*
X009121Y015775D01*
X009136Y015786D01*
X009153Y015794D01*
X009171Y015798D01*
X009189Y015798D01*
X009207Y015794D01*
X009224Y015786D01*
X009239Y015775D01*
X009251Y015762D01*
X009260Y015746D01*
X009266Y015728D01*
X009268Y015710D01*
X009266Y015692D01*
X009260Y015674D01*
X009251Y015658D01*
X009239Y015645D01*
X009224Y015634D01*
X009207Y015626D01*
X009189Y015622D01*
X009171Y015622D01*
X009153Y015626D01*
X009136Y015634D01*
X009121Y015645D01*
X009109Y015658D01*
X009100Y015674D01*
X009094Y015692D01*
X009092Y015710D01*
X009062Y015907D02*
X009849Y015907D01*
X010440Y015277D02*
X010440Y015198D01*
X010440Y014647D02*
X010440Y014568D01*
X009849Y013938D02*
X009062Y013938D01*
X009062Y012631D02*
X009849Y012631D01*
X009092Y012434D02*
X009094Y012452D01*
X009100Y012470D01*
X009109Y012486D01*
X009121Y012499D01*
X009136Y012510D01*
X009153Y012518D01*
X009171Y012522D01*
X009189Y012522D01*
X009207Y012518D01*
X009224Y012510D01*
X009239Y012499D01*
X009251Y012486D01*
X009260Y012470D01*
X009266Y012452D01*
X009268Y012434D01*
X009266Y012416D01*
X009260Y012398D01*
X009251Y012382D01*
X009239Y012369D01*
X009224Y012358D01*
X009207Y012350D01*
X009189Y012346D01*
X009171Y012346D01*
X009153Y012350D01*
X009136Y012358D01*
X009121Y012369D01*
X009109Y012382D01*
X009100Y012398D01*
X009094Y012416D01*
X009092Y012434D01*
X009055Y011797D02*
X009405Y011797D01*
X009405Y011497D01*
X009055Y011497D01*
X009055Y011797D01*
X009555Y011697D02*
X009655Y011697D01*
X009655Y011597D01*
X009555Y011597D01*
X009555Y011697D01*
X009849Y010663D02*
X009062Y010663D01*
X008471Y011292D02*
X008471Y011371D01*
X008471Y011922D02*
X008471Y012001D01*
X008155Y012127D02*
X008155Y012427D01*
X007955Y013127D02*
X006955Y013127D01*
X006955Y010127D01*
X007955Y010127D01*
X007955Y013127D01*
X006680Y013127D02*
X005680Y013127D01*
X005680Y010127D01*
X006680Y010127D01*
X006680Y013127D01*
X004380Y011697D02*
X004380Y011597D01*
X004280Y011597D01*
X004280Y011697D01*
X004380Y011697D01*
X004130Y011797D02*
X004130Y011497D01*
X003780Y011497D01*
X003780Y011797D01*
X004130Y011797D01*
X003196Y011371D02*
X003196Y011292D01*
X003780Y008521D02*
X004130Y008521D01*
X004130Y008221D01*
X003780Y008221D01*
X003780Y008521D01*
X003196Y008096D02*
X003196Y008017D01*
X004280Y008321D02*
X004380Y008321D01*
X004380Y008421D01*
X004280Y008421D01*
X004280Y008321D01*
X005680Y006851D02*
X006680Y006851D01*
X006680Y009851D01*
X005680Y009851D01*
X005680Y006851D01*
X004574Y006080D02*
X003786Y006080D01*
X003816Y005883D02*
X003818Y005901D01*
X003824Y005919D01*
X003833Y005935D01*
X003845Y005948D01*
X003860Y005959D01*
X003877Y005967D01*
X003895Y005971D01*
X003913Y005971D01*
X003931Y005967D01*
X003948Y005959D01*
X003963Y005948D01*
X003975Y005935D01*
X003984Y005919D01*
X003990Y005901D01*
X003992Y005883D01*
X003990Y005865D01*
X003984Y005847D01*
X003975Y005831D01*
X003963Y005818D01*
X003948Y005807D01*
X003931Y005799D01*
X003913Y005795D01*
X003895Y005795D01*
X003877Y005799D01*
X003860Y005807D01*
X003845Y005818D01*
X003833Y005831D01*
X003824Y005847D01*
X003818Y005865D01*
X003816Y005883D01*
X004280Y005146D02*
X004280Y005046D01*
X004380Y005046D01*
X004380Y005146D01*
X004280Y005146D01*
X005164Y005371D02*
X005164Y005450D01*
X005164Y004820D02*
X005164Y004741D01*
X006955Y003576D02*
X007955Y003576D01*
X007955Y006576D01*
X006955Y006576D01*
X006955Y003576D01*
X006955Y003300D02*
X007955Y003300D01*
X007955Y000300D01*
X006955Y000300D01*
X006955Y003300D01*
X008155Y002600D02*
X008155Y002300D01*
X008471Y002174D02*
X008471Y002096D01*
X008471Y001544D02*
X008471Y001466D01*
X009055Y001670D02*
X009405Y001670D01*
X009405Y001970D01*
X009055Y001970D01*
X009055Y001670D01*
X009555Y001770D02*
X009655Y001770D01*
X009655Y001870D01*
X009555Y001870D01*
X009555Y001770D01*
X009092Y002607D02*
X009094Y002625D01*
X009100Y002643D01*
X009109Y002659D01*
X009121Y002672D01*
X009136Y002683D01*
X009153Y002691D01*
X009171Y002695D01*
X009189Y002695D01*
X009207Y002691D01*
X009224Y002683D01*
X009239Y002672D01*
X009251Y002659D01*
X009260Y002643D01*
X009266Y002625D01*
X009268Y002607D01*
X009266Y002589D01*
X009260Y002571D01*
X009251Y002555D01*
X009239Y002542D01*
X009224Y002531D01*
X009207Y002523D01*
X009189Y002519D01*
X009171Y002519D01*
X009153Y002523D01*
X009136Y002531D01*
X009121Y002542D01*
X009109Y002555D01*
X009100Y002571D01*
X009094Y002589D01*
X009092Y002607D01*
X009062Y002804D02*
X009849Y002804D01*
X010440Y002174D02*
X010440Y002096D01*
X010440Y001544D02*
X010440Y001466D01*
X009849Y000836D02*
X009062Y000836D01*
X010955Y000300D02*
X011955Y000300D01*
X011955Y003300D01*
X010955Y003300D01*
X010955Y000300D01*
X012231Y000300D02*
X013231Y000300D01*
X013231Y003300D01*
X012231Y003300D01*
X012231Y000300D01*
X013747Y001466D02*
X013747Y001544D01*
X013747Y002096D02*
X013747Y002174D01*
X013431Y002300D02*
X013431Y002600D01*
X014337Y002804D02*
X015125Y002804D01*
X014367Y002607D02*
X014369Y002625D01*
X014375Y002643D01*
X014384Y002659D01*
X014396Y002672D01*
X014411Y002683D01*
X014428Y002691D01*
X014446Y002695D01*
X014464Y002695D01*
X014482Y002691D01*
X014499Y002683D01*
X014514Y002672D01*
X014526Y002659D01*
X014535Y002643D01*
X014541Y002625D01*
X014543Y002607D01*
X014541Y002589D01*
X014535Y002571D01*
X014526Y002555D01*
X014514Y002542D01*
X014499Y002531D01*
X014482Y002523D01*
X014464Y002519D01*
X014446Y002519D01*
X014428Y002523D01*
X014411Y002531D01*
X014396Y002542D01*
X014384Y002555D01*
X014375Y002571D01*
X014369Y002589D01*
X014367Y002607D01*
X014331Y001970D02*
X014681Y001970D01*
X014681Y001670D01*
X014331Y001670D01*
X014331Y001970D01*
X014831Y001870D02*
X014931Y001870D01*
X014931Y001770D01*
X014831Y001770D01*
X014831Y001870D01*
X015125Y000836D02*
X014337Y000836D01*
X015715Y001466D02*
X015715Y001544D01*
X015715Y002096D02*
X015715Y002174D01*
X016231Y003300D02*
X017231Y003300D01*
X017231Y000300D01*
X016231Y000300D01*
X016231Y003300D01*
X016231Y003576D02*
X017231Y003576D01*
X017231Y006576D01*
X016231Y006576D01*
X016231Y003576D01*
X015125Y004111D02*
X014337Y004111D01*
X014331Y004946D02*
X014681Y004946D01*
X014681Y005246D01*
X014331Y005246D01*
X014331Y004946D01*
X014831Y005046D02*
X014831Y005146D01*
X014931Y005146D01*
X014931Y005046D01*
X014831Y005046D01*
X014367Y005883D02*
X014369Y005901D01*
X014375Y005919D01*
X014384Y005935D01*
X014396Y005948D01*
X014411Y005959D01*
X014428Y005967D01*
X014446Y005971D01*
X014464Y005971D01*
X014482Y005967D01*
X014499Y005959D01*
X014514Y005948D01*
X014526Y005935D01*
X014535Y005919D01*
X014541Y005901D01*
X014543Y005883D01*
X014541Y005865D01*
X014535Y005847D01*
X014526Y005831D01*
X014514Y005818D01*
X014499Y005807D01*
X014482Y005799D01*
X014464Y005795D01*
X014446Y005795D01*
X014428Y005799D01*
X014411Y005807D01*
X014396Y005818D01*
X014384Y005831D01*
X014375Y005847D01*
X014369Y005865D01*
X014367Y005883D01*
X014337Y006080D02*
X015125Y006080D01*
X015715Y005450D02*
X015715Y005371D01*
X015715Y004820D02*
X015715Y004741D01*
X017507Y003576D02*
X018507Y003576D01*
X018507Y006576D01*
X017507Y006576D01*
X017507Y003576D01*
X017507Y003300D02*
X018507Y003300D01*
X018507Y000300D01*
X017507Y000300D01*
X017507Y003300D01*
X018707Y002600D02*
X018707Y002300D01*
X019022Y002174D02*
X019022Y002096D01*
X019022Y001544D02*
X019022Y001466D01*
X019607Y001670D02*
X019957Y001670D01*
X019957Y001970D01*
X019607Y001970D01*
X019607Y001670D01*
X020107Y001770D02*
X020207Y001770D01*
X020207Y001870D01*
X020107Y001870D01*
X020107Y001770D01*
X019643Y002607D02*
X019645Y002625D01*
X019651Y002643D01*
X019660Y002659D01*
X019672Y002672D01*
X019687Y002683D01*
X019704Y002691D01*
X019722Y002695D01*
X019740Y002695D01*
X019758Y002691D01*
X019775Y002683D01*
X019790Y002672D01*
X019802Y002659D01*
X019811Y002643D01*
X019817Y002625D01*
X019819Y002607D01*
X019817Y002589D01*
X019811Y002571D01*
X019802Y002555D01*
X019790Y002542D01*
X019775Y002531D01*
X019758Y002523D01*
X019740Y002519D01*
X019722Y002519D01*
X019704Y002523D01*
X019687Y002531D01*
X019672Y002542D01*
X019660Y002555D01*
X019651Y002571D01*
X019645Y002589D01*
X019643Y002607D01*
X019613Y002804D02*
X020400Y002804D01*
X020991Y002174D02*
X020991Y002096D01*
X020991Y001544D02*
X020991Y001466D01*
X020400Y000836D02*
X019613Y000836D01*
X021507Y000300D02*
X022507Y000300D01*
X022507Y003300D01*
X021507Y003300D01*
X021507Y000300D01*
X022782Y000300D02*
X023782Y000300D01*
X023782Y003300D01*
X022782Y003300D01*
X022782Y000300D01*
X024298Y001466D02*
X024298Y001544D01*
X024298Y002096D02*
X024298Y002174D01*
X023982Y002300D02*
X023982Y002600D01*
X024888Y002804D02*
X025676Y002804D01*
X024919Y002607D02*
X024921Y002625D01*
X024927Y002643D01*
X024936Y002659D01*
X024948Y002672D01*
X024963Y002683D01*
X024980Y002691D01*
X024998Y002695D01*
X025016Y002695D01*
X025034Y002691D01*
X025051Y002683D01*
X025066Y002672D01*
X025078Y002659D01*
X025087Y002643D01*
X025093Y002625D01*
X025095Y002607D01*
X025093Y002589D01*
X025087Y002571D01*
X025078Y002555D01*
X025066Y002542D01*
X025051Y002531D01*
X025034Y002523D01*
X025016Y002519D01*
X024998Y002519D01*
X024980Y002523D01*
X024963Y002531D01*
X024948Y002542D01*
X024936Y002555D01*
X024927Y002571D01*
X024921Y002589D01*
X024919Y002607D01*
X024882Y001970D02*
X025232Y001970D01*
X025232Y001670D01*
X024882Y001670D01*
X024882Y001970D01*
X025382Y001870D02*
X025482Y001870D01*
X025482Y001770D01*
X025382Y001770D01*
X025382Y001870D01*
X026266Y002096D02*
X026266Y002174D01*
X026266Y001544D02*
X026266Y001466D01*
X025676Y000836D02*
X024888Y000836D01*
X026782Y000300D02*
X027782Y000300D01*
X027782Y003300D01*
X026782Y003300D01*
X026782Y000300D01*
X028058Y000300D02*
X029058Y000300D01*
X029058Y003300D01*
X028058Y003300D01*
X028058Y000300D01*
X029574Y001466D02*
X029574Y001544D01*
X030158Y001670D02*
X030508Y001670D01*
X030508Y001970D01*
X030158Y001970D01*
X030158Y001670D01*
X029574Y002096D02*
X029574Y002174D01*
X029258Y002300D02*
X029258Y002600D01*
X030164Y002804D02*
X030951Y002804D01*
X030194Y002607D02*
X030196Y002625D01*
X030202Y002643D01*
X030211Y002659D01*
X030223Y002672D01*
X030238Y002683D01*
X030255Y002691D01*
X030273Y002695D01*
X030291Y002695D01*
X030309Y002691D01*
X030326Y002683D01*
X030341Y002672D01*
X030353Y002659D01*
X030362Y002643D01*
X030368Y002625D01*
X030370Y002607D01*
X030368Y002589D01*
X030362Y002571D01*
X030353Y002555D01*
X030341Y002542D01*
X030326Y002531D01*
X030309Y002523D01*
X030291Y002519D01*
X030273Y002519D01*
X030255Y002523D01*
X030238Y002531D01*
X030223Y002542D01*
X030211Y002555D01*
X030202Y002571D01*
X030196Y002589D01*
X030194Y002607D01*
X030658Y001870D02*
X030758Y001870D01*
X030758Y001770D01*
X030658Y001770D01*
X030658Y001870D01*
X031542Y002096D02*
X031542Y002174D01*
X031542Y001544D02*
X031542Y001466D01*
X030951Y000836D02*
X030164Y000836D01*
X032058Y000300D02*
X033058Y000300D01*
X033058Y003300D01*
X032058Y003300D01*
X032058Y000300D01*
X032058Y003576D02*
X033058Y003576D01*
X033058Y006576D01*
X032058Y006576D01*
X032058Y003576D01*
X030951Y004111D02*
X030164Y004111D01*
X030158Y004946D02*
X030508Y004946D01*
X030508Y005246D01*
X030158Y005246D01*
X030158Y004946D01*
X029574Y004820D02*
X029574Y004741D01*
X029574Y005371D02*
X029574Y005450D01*
X029258Y005576D02*
X029258Y005876D01*
X029058Y006576D02*
X028058Y006576D01*
X028058Y003576D01*
X029058Y003576D01*
X029058Y006576D01*
X029058Y006851D02*
X028058Y006851D01*
X028058Y009851D01*
X029058Y009851D01*
X029058Y006851D01*
X030164Y007387D02*
X030951Y007387D01*
X031542Y008017D02*
X031542Y008096D01*
X031542Y008647D02*
X031542Y008726D01*
X030951Y009355D02*
X030164Y009355D01*
X030194Y009159D02*
X030196Y009177D01*
X030202Y009195D01*
X030211Y009211D01*
X030223Y009224D01*
X030238Y009235D01*
X030255Y009243D01*
X030273Y009247D01*
X030291Y009247D01*
X030309Y009243D01*
X030326Y009235D01*
X030341Y009224D01*
X030353Y009211D01*
X030362Y009195D01*
X030368Y009177D01*
X030370Y009159D01*
X030368Y009141D01*
X030362Y009123D01*
X030353Y009107D01*
X030341Y009094D01*
X030326Y009083D01*
X030309Y009075D01*
X030291Y009071D01*
X030273Y009071D01*
X030255Y009075D01*
X030238Y009083D01*
X030223Y009094D01*
X030211Y009107D01*
X030202Y009123D01*
X030196Y009141D01*
X030194Y009159D01*
X029574Y008726D02*
X029574Y008647D01*
X029258Y008851D02*
X029258Y009151D01*
X029058Y010127D02*
X028058Y010127D01*
X028058Y013127D01*
X029058Y013127D01*
X029058Y010127D01*
X030164Y010663D02*
X030951Y010663D01*
X031542Y011292D02*
X031542Y011371D01*
X031542Y011922D02*
X031542Y012001D01*
X030951Y012631D02*
X030164Y012631D01*
X030194Y012434D02*
X030196Y012452D01*
X030202Y012470D01*
X030211Y012486D01*
X030223Y012499D01*
X030238Y012510D01*
X030255Y012518D01*
X030273Y012522D01*
X030291Y012522D01*
X030309Y012518D01*
X030326Y012510D01*
X030341Y012499D01*
X030353Y012486D01*
X030362Y012470D01*
X030368Y012452D01*
X030370Y012434D01*
X030368Y012416D01*
X030362Y012398D01*
X030353Y012382D01*
X030341Y012369D01*
X030326Y012358D01*
X030309Y012350D01*
X030291Y012346D01*
X030273Y012346D01*
X030255Y012350D01*
X030238Y012358D01*
X030223Y012369D01*
X030211Y012382D01*
X030202Y012398D01*
X030196Y012416D01*
X030194Y012434D01*
X029574Y012001D02*
X029574Y011922D01*
X029258Y012127D02*
X029258Y012427D01*
X029058Y013402D02*
X028058Y013402D01*
X028058Y016402D01*
X029058Y016402D01*
X029058Y013402D01*
X030164Y013938D02*
X030951Y013938D01*
X031542Y014568D02*
X031542Y014647D01*
X031542Y015198D02*
X031542Y015277D01*
X030758Y014972D02*
X030758Y014872D01*
X030658Y014872D01*
X030658Y014972D01*
X030758Y014972D01*
X030508Y015072D02*
X030508Y014772D01*
X030158Y014772D01*
X030158Y015072D01*
X030508Y015072D01*
X030194Y015710D02*
X030196Y015728D01*
X030202Y015746D01*
X030211Y015762D01*
X030223Y015775D01*
X030238Y015786D01*
X030255Y015794D01*
X030273Y015798D01*
X030291Y015798D01*
X030309Y015794D01*
X030326Y015786D01*
X030341Y015775D01*
X030353Y015762D01*
X030362Y015746D01*
X030368Y015728D01*
X030370Y015710D01*
X030368Y015692D01*
X030362Y015674D01*
X030353Y015658D01*
X030341Y015645D01*
X030326Y015634D01*
X030309Y015626D01*
X030291Y015622D01*
X030273Y015622D01*
X030255Y015626D01*
X030238Y015634D01*
X030223Y015645D01*
X030211Y015658D01*
X030202Y015674D01*
X030196Y015692D01*
X030194Y015710D01*
X030164Y015907D02*
X030951Y015907D01*
X032058Y016402D02*
X033058Y016402D01*
X033058Y013402D01*
X032058Y013402D01*
X032058Y016402D01*
X032058Y016678D02*
X033058Y016678D01*
X033058Y019678D01*
X032058Y019678D01*
X032058Y016678D01*
X030951Y017214D02*
X030164Y017214D01*
X030158Y018048D02*
X030508Y018048D01*
X030508Y018348D01*
X030158Y018348D01*
X030158Y018048D01*
X029574Y017922D02*
X029574Y017844D01*
X029574Y018474D02*
X029574Y018552D01*
X029258Y018678D02*
X029258Y018978D01*
X029058Y019678D02*
X028058Y019678D01*
X028058Y016678D01*
X029058Y016678D01*
X029058Y019678D01*
X029058Y019954D02*
X028058Y019954D01*
X028058Y022954D01*
X029058Y022954D01*
X029058Y019954D01*
X030164Y020489D02*
X030951Y020489D01*
X031542Y021119D02*
X031542Y021198D01*
X031542Y021749D02*
X031542Y021828D01*
X030951Y022458D02*
X030164Y022458D01*
X030194Y022261D02*
X030196Y022279D01*
X030202Y022297D01*
X030211Y022313D01*
X030223Y022326D01*
X030238Y022337D01*
X030255Y022345D01*
X030273Y022349D01*
X030291Y022349D01*
X030309Y022345D01*
X030326Y022337D01*
X030341Y022326D01*
X030353Y022313D01*
X030362Y022297D01*
X030368Y022279D01*
X030370Y022261D01*
X030368Y022243D01*
X030362Y022225D01*
X030353Y022209D01*
X030341Y022196D01*
X030326Y022185D01*
X030309Y022177D01*
X030291Y022173D01*
X030273Y022173D01*
X030255Y022177D01*
X030238Y022185D01*
X030223Y022196D01*
X030211Y022209D01*
X030202Y022225D01*
X030196Y022243D01*
X030194Y022261D01*
X029574Y021828D02*
X029574Y021749D01*
X029258Y021954D02*
X029258Y022254D01*
X029058Y023229D02*
X028058Y023229D01*
X028058Y026229D01*
X029058Y026229D01*
X029058Y023229D01*
X030164Y023765D02*
X030951Y023765D01*
X031542Y024395D02*
X031542Y024474D01*
X031542Y025025D02*
X031542Y025103D01*
X030758Y024799D02*
X030758Y024699D01*
X030658Y024699D01*
X030658Y024799D01*
X030758Y024799D01*
X030508Y024899D02*
X030508Y024599D01*
X030158Y024599D01*
X030158Y024899D01*
X030508Y024899D01*
X030194Y025537D02*
X030196Y025555D01*
X030202Y025573D01*
X030211Y025589D01*
X030223Y025602D01*
X030238Y025613D01*
X030255Y025621D01*
X030273Y025625D01*
X030291Y025625D01*
X030309Y025621D01*
X030326Y025613D01*
X030341Y025602D01*
X030353Y025589D01*
X030362Y025573D01*
X030368Y025555D01*
X030370Y025537D01*
X030368Y025519D01*
X030362Y025501D01*
X030353Y025485D01*
X030341Y025472D01*
X030326Y025461D01*
X030309Y025453D01*
X030291Y025449D01*
X030273Y025449D01*
X030255Y025453D01*
X030238Y025461D01*
X030223Y025472D01*
X030211Y025485D01*
X030202Y025501D01*
X030196Y025519D01*
X030194Y025537D01*
X030164Y025733D02*
X030951Y025733D01*
X032058Y026229D02*
X033058Y026229D01*
X033058Y023229D01*
X032058Y023229D01*
X032058Y026229D01*
X032058Y026505D02*
X033058Y026505D01*
X033058Y029505D01*
X032058Y029505D01*
X032058Y026505D01*
X030951Y027040D02*
X030164Y027040D01*
X030158Y027875D02*
X030508Y027875D01*
X030508Y028175D01*
X030158Y028175D01*
X030158Y027875D01*
X029574Y027749D02*
X029574Y027670D01*
X029574Y028300D02*
X029574Y028379D01*
X029258Y028505D02*
X029258Y028805D01*
X029058Y029505D02*
X028058Y029505D01*
X028058Y026505D01*
X029058Y026505D01*
X029058Y029505D01*
X029058Y029780D02*
X028058Y029780D01*
X028058Y032780D01*
X029058Y032780D01*
X029058Y029780D01*
X030164Y030316D02*
X030951Y030316D01*
X031542Y030946D02*
X031542Y031025D01*
X031542Y031576D02*
X031542Y031655D01*
X030951Y032285D02*
X030164Y032285D01*
X030194Y032088D02*
X030196Y032106D01*
X030202Y032124D01*
X030211Y032140D01*
X030223Y032153D01*
X030238Y032164D01*
X030255Y032172D01*
X030273Y032176D01*
X030291Y032176D01*
X030309Y032172D01*
X030326Y032164D01*
X030341Y032153D01*
X030353Y032140D01*
X030362Y032124D01*
X030368Y032106D01*
X030370Y032088D01*
X030368Y032070D01*
X030362Y032052D01*
X030353Y032036D01*
X030341Y032023D01*
X030326Y032012D01*
X030309Y032004D01*
X030291Y032000D01*
X030273Y032000D01*
X030255Y032004D01*
X030238Y032012D01*
X030223Y032023D01*
X030211Y032036D01*
X030202Y032052D01*
X030196Y032070D01*
X030194Y032088D01*
X029574Y031655D02*
X029574Y031576D01*
X029258Y031780D02*
X029258Y032080D01*
X029058Y033056D02*
X028058Y033056D01*
X028058Y036056D01*
X029058Y036056D01*
X029058Y033056D01*
X030164Y033592D02*
X030951Y033592D01*
X031542Y034222D02*
X031542Y034300D01*
X031542Y034851D02*
X031542Y034930D01*
X030758Y034626D02*
X030758Y034526D01*
X030658Y034526D01*
X030658Y034626D01*
X030758Y034626D01*
X030508Y034726D02*
X030508Y034426D01*
X030158Y034426D01*
X030158Y034726D01*
X030508Y034726D01*
X030194Y035363D02*
X030196Y035381D01*
X030202Y035399D01*
X030211Y035415D01*
X030223Y035428D01*
X030238Y035439D01*
X030255Y035447D01*
X030273Y035451D01*
X030291Y035451D01*
X030309Y035447D01*
X030326Y035439D01*
X030341Y035428D01*
X030353Y035415D01*
X030362Y035399D01*
X030368Y035381D01*
X030370Y035363D01*
X030368Y035345D01*
X030362Y035327D01*
X030353Y035311D01*
X030341Y035298D01*
X030326Y035287D01*
X030309Y035279D01*
X030291Y035275D01*
X030273Y035275D01*
X030255Y035279D01*
X030238Y035287D01*
X030223Y035298D01*
X030211Y035311D01*
X030202Y035327D01*
X030196Y035345D01*
X030194Y035363D01*
X030164Y035560D02*
X030951Y035560D01*
X032058Y036056D02*
X033058Y036056D01*
X033058Y033056D01*
X032058Y033056D01*
X032058Y036056D01*
X032058Y036331D02*
X033058Y036331D01*
X033058Y039331D01*
X032058Y039331D01*
X032058Y036331D01*
X031542Y037497D02*
X031542Y037576D01*
X031542Y038127D02*
X031542Y038206D01*
X030758Y037901D02*
X030758Y037801D01*
X030658Y037801D01*
X030658Y037901D01*
X030758Y037901D01*
X030508Y038001D02*
X030508Y037701D01*
X030158Y037701D01*
X030158Y038001D01*
X030508Y038001D01*
X030194Y038639D02*
X030196Y038657D01*
X030202Y038675D01*
X030211Y038691D01*
X030223Y038704D01*
X030238Y038715D01*
X030255Y038723D01*
X030273Y038727D01*
X030291Y038727D01*
X030309Y038723D01*
X030326Y038715D01*
X030341Y038704D01*
X030353Y038691D01*
X030362Y038675D01*
X030368Y038657D01*
X030370Y038639D01*
X030368Y038621D01*
X030362Y038603D01*
X030353Y038587D01*
X030341Y038574D01*
X030326Y038563D01*
X030309Y038555D01*
X030291Y038551D01*
X030273Y038551D01*
X030255Y038555D01*
X030238Y038563D01*
X030223Y038574D01*
X030211Y038587D01*
X030202Y038603D01*
X030196Y038621D01*
X030194Y038639D01*
X030164Y038836D02*
X030951Y038836D01*
X029574Y038206D02*
X029574Y038127D01*
X029258Y038331D02*
X029258Y038631D01*
X029058Y039331D02*
X028058Y039331D01*
X028058Y036331D01*
X029058Y036331D01*
X029058Y039331D01*
X027782Y039331D02*
X026782Y039331D01*
X026782Y036331D01*
X027782Y036331D01*
X027782Y039331D01*
X026266Y038206D02*
X026266Y038127D01*
X026266Y037576D02*
X026266Y037497D01*
X025482Y037801D02*
X025382Y037801D01*
X025382Y037901D01*
X025482Y037901D01*
X025482Y037801D01*
X025232Y037701D02*
X025232Y038001D01*
X024882Y038001D01*
X024882Y037701D01*
X025232Y037701D01*
X024888Y036867D02*
X025676Y036867D01*
X025676Y035560D02*
X024888Y035560D01*
X024919Y035363D02*
X024921Y035381D01*
X024927Y035399D01*
X024936Y035415D01*
X024948Y035428D01*
X024963Y035439D01*
X024980Y035447D01*
X024998Y035451D01*
X025016Y035451D01*
X025034Y035447D01*
X025051Y035439D01*
X025066Y035428D01*
X025078Y035415D01*
X025087Y035399D01*
X025093Y035381D01*
X025095Y035363D01*
X025093Y035345D01*
X025087Y035327D01*
X025078Y035311D01*
X025066Y035298D01*
X025051Y035287D01*
X025034Y035279D01*
X025016Y035275D01*
X024998Y035275D01*
X024980Y035279D01*
X024963Y035287D01*
X024948Y035298D01*
X024936Y035311D01*
X024927Y035327D01*
X024921Y035345D01*
X024919Y035363D01*
X024882Y034726D02*
X025232Y034726D01*
X025232Y034426D01*
X024882Y034426D01*
X024882Y034726D01*
X025382Y034626D02*
X025482Y034626D01*
X025482Y034526D01*
X025382Y034526D01*
X025382Y034626D01*
X026266Y034851D02*
X026266Y034930D01*
X026266Y034300D02*
X026266Y034222D01*
X025676Y033592D02*
X024888Y033592D01*
X024298Y034222D02*
X024298Y034300D01*
X024298Y034851D02*
X024298Y034930D01*
X023982Y035056D02*
X023982Y035356D01*
X023782Y036056D02*
X022782Y036056D01*
X022782Y033056D01*
X023782Y033056D01*
X023782Y036056D01*
X023782Y036331D02*
X022782Y036331D01*
X022782Y039331D01*
X023782Y039331D01*
X023782Y036331D01*
X024298Y037497D02*
X024298Y037576D01*
X024298Y038127D02*
X024298Y038206D01*
X023982Y038331D02*
X023982Y038631D01*
X024888Y038836D02*
X025676Y038836D01*
X024919Y038639D02*
X024921Y038657D01*
X024927Y038675D01*
X024936Y038691D01*
X024948Y038704D01*
X024963Y038715D01*
X024980Y038723D01*
X024998Y038727D01*
X025016Y038727D01*
X025034Y038723D01*
X025051Y038715D01*
X025066Y038704D01*
X025078Y038691D01*
X025087Y038675D01*
X025093Y038657D01*
X025095Y038639D01*
X025093Y038621D01*
X025087Y038603D01*
X025078Y038587D01*
X025066Y038574D01*
X025051Y038563D01*
X025034Y038555D01*
X025016Y038551D01*
X024998Y038551D01*
X024980Y038555D01*
X024963Y038563D01*
X024948Y038574D01*
X024936Y038587D01*
X024927Y038603D01*
X024921Y038621D01*
X024919Y038639D01*
X026782Y036056D02*
X027782Y036056D01*
X027782Y033056D01*
X026782Y033056D01*
X026782Y036056D01*
X029258Y035356D02*
X029258Y035056D01*
X029574Y034930D02*
X029574Y034851D01*
X029574Y034300D02*
X029574Y034222D01*
X027782Y032780D02*
X026782Y032780D01*
X026782Y029780D01*
X027782Y029780D01*
X027782Y032780D01*
X026266Y031655D02*
X026266Y031576D01*
X026266Y031025D02*
X026266Y030946D01*
X025482Y031250D02*
X025382Y031250D01*
X025382Y031350D01*
X025482Y031350D01*
X025482Y031250D01*
X025232Y031150D02*
X024882Y031150D01*
X024882Y031450D01*
X025232Y031450D01*
X025232Y031150D01*
X024888Y030316D02*
X025676Y030316D01*
X025676Y029009D02*
X024888Y029009D01*
X024919Y028812D02*
X024921Y028830D01*
X024927Y028848D01*
X024936Y028864D01*
X024948Y028877D01*
X024963Y028888D01*
X024980Y028896D01*
X024998Y028900D01*
X025016Y028900D01*
X025034Y028896D01*
X025051Y028888D01*
X025066Y028877D01*
X025078Y028864D01*
X025087Y028848D01*
X025093Y028830D01*
X025095Y028812D01*
X025093Y028794D01*
X025087Y028776D01*
X025078Y028760D01*
X025066Y028747D01*
X025051Y028736D01*
X025034Y028728D01*
X025016Y028724D01*
X024998Y028724D01*
X024980Y028728D01*
X024963Y028736D01*
X024948Y028747D01*
X024936Y028760D01*
X024927Y028776D01*
X024921Y028794D01*
X024919Y028812D01*
X024882Y028175D02*
X025232Y028175D01*
X025232Y027875D01*
X024882Y027875D01*
X024882Y028175D01*
X025382Y028075D02*
X025382Y027975D01*
X025482Y027975D01*
X025482Y028075D01*
X025382Y028075D01*
X026266Y028300D02*
X026266Y028379D01*
X026266Y027749D02*
X026266Y027670D01*
X025676Y027040D02*
X024888Y027040D01*
X024298Y027670D02*
X024298Y027749D01*
X024298Y028300D02*
X024298Y028379D01*
X023982Y028505D02*
X023982Y028805D01*
X023782Y029505D02*
X022782Y029505D01*
X022782Y026505D01*
X023782Y026505D01*
X023782Y029505D01*
X023782Y029780D02*
X022782Y029780D01*
X022782Y032780D01*
X023782Y032780D01*
X023782Y029780D01*
X024298Y030946D02*
X024298Y031025D01*
X024298Y031576D02*
X024298Y031655D01*
X023982Y031780D02*
X023982Y032080D01*
X024888Y032285D02*
X025676Y032285D01*
X024919Y032088D02*
X024921Y032106D01*
X024927Y032124D01*
X024936Y032140D01*
X024948Y032153D01*
X024963Y032164D01*
X024980Y032172D01*
X024998Y032176D01*
X025016Y032176D01*
X025034Y032172D01*
X025051Y032164D01*
X025066Y032153D01*
X025078Y032140D01*
X025087Y032124D01*
X025093Y032106D01*
X025095Y032088D01*
X025093Y032070D01*
X025087Y032052D01*
X025078Y032036D01*
X025066Y032023D01*
X025051Y032012D01*
X025034Y032004D01*
X025016Y032000D01*
X024998Y032000D01*
X024980Y032004D01*
X024963Y032012D01*
X024948Y032023D01*
X024936Y032036D01*
X024927Y032052D01*
X024921Y032070D01*
X024919Y032088D01*
X022507Y032780D02*
X022507Y029780D01*
X021507Y029780D01*
X021507Y032780D01*
X022507Y032780D01*
X022507Y033056D02*
X022507Y036056D01*
X021507Y036056D01*
X021507Y033056D01*
X022507Y033056D01*
X020991Y034222D02*
X020991Y034300D01*
X020991Y034851D02*
X020991Y034930D01*
X020207Y034626D02*
X020207Y034526D01*
X020107Y034526D01*
X020107Y034626D01*
X020207Y034626D01*
X019957Y034726D02*
X019957Y034426D01*
X019607Y034426D01*
X019607Y034726D01*
X019957Y034726D01*
X019643Y035363D02*
X019645Y035381D01*
X019651Y035399D01*
X019660Y035415D01*
X019672Y035428D01*
X019687Y035439D01*
X019704Y035447D01*
X019722Y035451D01*
X019740Y035451D01*
X019758Y035447D01*
X019775Y035439D01*
X019790Y035428D01*
X019802Y035415D01*
X019811Y035399D01*
X019817Y035381D01*
X019819Y035363D01*
X019817Y035345D01*
X019811Y035327D01*
X019802Y035311D01*
X019790Y035298D01*
X019775Y035287D01*
X019758Y035279D01*
X019740Y035275D01*
X019722Y035275D01*
X019704Y035279D01*
X019687Y035287D01*
X019672Y035298D01*
X019660Y035311D01*
X019651Y035327D01*
X019645Y035345D01*
X019643Y035363D01*
X019613Y035560D02*
X020400Y035560D01*
X020400Y036867D02*
X019613Y036867D01*
X019607Y037701D02*
X019957Y037701D01*
X019957Y038001D01*
X019607Y038001D01*
X019607Y037701D01*
X020107Y037801D02*
X020207Y037801D01*
X020207Y037901D01*
X020107Y037901D01*
X020107Y037801D01*
X019643Y038639D02*
X019645Y038657D01*
X019651Y038675D01*
X019660Y038691D01*
X019672Y038704D01*
X019687Y038715D01*
X019704Y038723D01*
X019722Y038727D01*
X019740Y038727D01*
X019758Y038723D01*
X019775Y038715D01*
X019790Y038704D01*
X019802Y038691D01*
X019811Y038675D01*
X019817Y038657D01*
X019819Y038639D01*
X019817Y038621D01*
X019811Y038603D01*
X019802Y038587D01*
X019790Y038574D01*
X019775Y038563D01*
X019758Y038555D01*
X019740Y038551D01*
X019722Y038551D01*
X019704Y038555D01*
X019687Y038563D01*
X019672Y038574D01*
X019660Y038587D01*
X019651Y038603D01*
X019645Y038621D01*
X019643Y038639D01*
X019613Y038836D02*
X020400Y038836D01*
X020991Y038206D02*
X020991Y038127D01*
X020991Y037576D02*
X020991Y037497D01*
X021507Y036331D02*
X022507Y036331D01*
X022507Y039331D01*
X021507Y039331D01*
X021507Y036331D01*
X019022Y037497D02*
X019022Y037576D01*
X019022Y038127D02*
X019022Y038206D01*
X018707Y038331D02*
X018707Y038631D01*
X018507Y039331D02*
X017507Y039331D01*
X017507Y036331D01*
X018507Y036331D01*
X018507Y039331D01*
X017231Y039331D02*
X016231Y039331D01*
X016231Y036331D01*
X017231Y036331D01*
X017231Y039331D01*
X015715Y038206D02*
X015715Y038127D01*
X015715Y037576D02*
X015715Y037497D01*
X015125Y036867D02*
X014337Y036867D01*
X014331Y037701D02*
X014681Y037701D01*
X014681Y038001D01*
X014331Y038001D01*
X014331Y037701D01*
X014831Y037801D02*
X014931Y037801D01*
X014931Y037901D01*
X014831Y037901D01*
X014831Y037801D01*
X014367Y038639D02*
X014369Y038657D01*
X014375Y038675D01*
X014384Y038691D01*
X014396Y038704D01*
X014411Y038715D01*
X014428Y038723D01*
X014446Y038727D01*
X014464Y038727D01*
X014482Y038723D01*
X014499Y038715D01*
X014514Y038704D01*
X014526Y038691D01*
X014535Y038675D01*
X014541Y038657D01*
X014543Y038639D01*
X014541Y038621D01*
X014535Y038603D01*
X014526Y038587D01*
X014514Y038574D01*
X014499Y038563D01*
X014482Y038555D01*
X014464Y038551D01*
X014446Y038551D01*
X014428Y038555D01*
X014411Y038563D01*
X014396Y038574D01*
X014384Y038587D01*
X014375Y038603D01*
X014369Y038621D01*
X014367Y038639D01*
X014337Y038836D02*
X015125Y038836D01*
X013747Y038206D02*
X013747Y038127D01*
X013431Y038331D02*
X013431Y038631D01*
X013231Y039331D02*
X012231Y039331D01*
X012231Y036331D01*
X013231Y036331D01*
X013231Y039331D01*
X011955Y039331D02*
X010955Y039331D01*
X010955Y036331D01*
X011955Y036331D01*
X011955Y039331D01*
X010440Y038206D02*
X010440Y038127D01*
X010440Y037576D02*
X010440Y037497D01*
X009849Y036867D02*
X009062Y036867D01*
X009055Y037701D02*
X009405Y037701D01*
X009405Y038001D01*
X009055Y038001D01*
X009055Y037701D01*
X009555Y037801D02*
X009655Y037801D01*
X009655Y037901D01*
X009555Y037901D01*
X009555Y037801D01*
X009092Y038639D02*
X009094Y038657D01*
X009100Y038675D01*
X009109Y038691D01*
X009121Y038704D01*
X009136Y038715D01*
X009153Y038723D01*
X009171Y038727D01*
X009189Y038727D01*
X009207Y038723D01*
X009224Y038715D01*
X009239Y038704D01*
X009251Y038691D01*
X009260Y038675D01*
X009266Y038657D01*
X009268Y038639D01*
X009266Y038621D01*
X009260Y038603D01*
X009251Y038587D01*
X009239Y038574D01*
X009224Y038563D01*
X009207Y038555D01*
X009189Y038551D01*
X009171Y038551D01*
X009153Y038555D01*
X009136Y038563D01*
X009121Y038574D01*
X009109Y038587D01*
X009100Y038603D01*
X009094Y038621D01*
X009092Y038639D01*
X009062Y038836D02*
X009849Y038836D01*
X008471Y038206D02*
X008471Y038127D01*
X008155Y038331D02*
X008155Y038631D01*
X007955Y039331D02*
X006955Y039331D01*
X006955Y036331D01*
X007955Y036331D01*
X007955Y039331D01*
X008471Y037576D02*
X008471Y037497D01*
X007955Y036056D02*
X006955Y036056D01*
X006955Y033056D01*
X007955Y033056D01*
X007955Y036056D01*
X008155Y035356D02*
X008155Y035056D01*
X008471Y034930D02*
X008471Y034851D01*
X008471Y034300D02*
X008471Y034222D01*
X009055Y034426D02*
X009405Y034426D01*
X009405Y034726D01*
X009055Y034726D01*
X009055Y034426D01*
X009555Y034526D02*
X009655Y034526D01*
X009655Y034626D01*
X009555Y034626D01*
X009555Y034526D01*
X009092Y035363D02*
X009094Y035381D01*
X009100Y035399D01*
X009109Y035415D01*
X009121Y035428D01*
X009136Y035439D01*
X009153Y035447D01*
X009171Y035451D01*
X009189Y035451D01*
X009207Y035447D01*
X009224Y035439D01*
X009239Y035428D01*
X009251Y035415D01*
X009260Y035399D01*
X009266Y035381D01*
X009268Y035363D01*
X009266Y035345D01*
X009260Y035327D01*
X009251Y035311D01*
X009239Y035298D01*
X009224Y035287D01*
X009207Y035279D01*
X009189Y035275D01*
X009171Y035275D01*
X009153Y035279D01*
X009136Y035287D01*
X009121Y035298D01*
X009109Y035311D01*
X009100Y035327D01*
X009094Y035345D01*
X009092Y035363D01*
X009062Y035560D02*
X009849Y035560D01*
X010440Y034930D02*
X010440Y034851D01*
X010440Y034300D02*
X010440Y034222D01*
X009849Y033592D02*
X009062Y033592D01*
X009062Y032285D02*
X009849Y032285D01*
X009092Y032088D02*
X009094Y032106D01*
X009100Y032124D01*
X009109Y032140D01*
X009121Y032153D01*
X009136Y032164D01*
X009153Y032172D01*
X009171Y032176D01*
X009189Y032176D01*
X009207Y032172D01*
X009224Y032164D01*
X009239Y032153D01*
X009251Y032140D01*
X009260Y032124D01*
X009266Y032106D01*
X009268Y032088D01*
X009266Y032070D01*
X009260Y032052D01*
X009251Y032036D01*
X009239Y032023D01*
X009224Y032012D01*
X009207Y032004D01*
X009189Y032000D01*
X009171Y032000D01*
X009153Y032004D01*
X009136Y032012D01*
X009121Y032023D01*
X009109Y032036D01*
X009100Y032052D01*
X009094Y032070D01*
X009092Y032088D01*
X009055Y031450D02*
X009405Y031450D01*
X009405Y031150D01*
X009055Y031150D01*
X009055Y031450D01*
X009555Y031350D02*
X009655Y031350D01*
X009655Y031250D01*
X009555Y031250D01*
X009555Y031350D01*
X010440Y031576D02*
X010440Y031655D01*
X010440Y031025D02*
X010440Y030946D01*
X009849Y030316D02*
X009062Y030316D01*
X008471Y030946D02*
X008471Y031025D01*
X008471Y031576D02*
X008471Y031655D01*
X008155Y031780D02*
X008155Y032080D01*
X007955Y032780D02*
X006955Y032780D01*
X006955Y029780D01*
X007955Y029780D01*
X007955Y032780D01*
X010955Y032780D02*
X010955Y029780D01*
X011955Y029780D01*
X011955Y032780D01*
X010955Y032780D01*
X010955Y033056D02*
X011955Y033056D01*
X011955Y036056D01*
X010955Y036056D01*
X010955Y033056D01*
X012231Y033056D02*
X013231Y033056D01*
X013231Y036056D01*
X012231Y036056D01*
X012231Y033056D01*
X012231Y032780D02*
X013231Y032780D01*
X013231Y029780D01*
X012231Y029780D01*
X012231Y032780D01*
X013431Y032080D02*
X013431Y031780D01*
X013747Y031655D02*
X013747Y031576D01*
X013747Y031025D02*
X013747Y030946D01*
X014331Y031150D02*
X014681Y031150D01*
X014681Y031450D01*
X014331Y031450D01*
X014331Y031150D01*
X014831Y031250D02*
X014931Y031250D01*
X014931Y031350D01*
X014831Y031350D01*
X014831Y031250D01*
X014367Y032088D02*
X014369Y032106D01*
X014375Y032124D01*
X014384Y032140D01*
X014396Y032153D01*
X014411Y032164D01*
X014428Y032172D01*
X014446Y032176D01*
X014464Y032176D01*
X014482Y032172D01*
X014499Y032164D01*
X014514Y032153D01*
X014526Y032140D01*
X014535Y032124D01*
X014541Y032106D01*
X014543Y032088D01*
X014541Y032070D01*
X014535Y032052D01*
X014526Y032036D01*
X014514Y032023D01*
X014499Y032012D01*
X014482Y032004D01*
X014464Y032000D01*
X014446Y032000D01*
X014428Y032004D01*
X014411Y032012D01*
X014396Y032023D01*
X014384Y032036D01*
X014375Y032052D01*
X014369Y032070D01*
X014367Y032088D01*
X014337Y032285D02*
X015125Y032285D01*
X015715Y031655D02*
X015715Y031576D01*
X015715Y031025D02*
X015715Y030946D01*
X015125Y030316D02*
X014337Y030316D01*
X014337Y029009D02*
X015125Y029009D01*
X014367Y028812D02*
X014369Y028830D01*
X014375Y028848D01*
X014384Y028864D01*
X014396Y028877D01*
X014411Y028888D01*
X014428Y028896D01*
X014446Y028900D01*
X014464Y028900D01*
X014482Y028896D01*
X014499Y028888D01*
X014514Y028877D01*
X014526Y028864D01*
X014535Y028848D01*
X014541Y028830D01*
X014543Y028812D01*
X014541Y028794D01*
X014535Y028776D01*
X014526Y028760D01*
X014514Y028747D01*
X014499Y028736D01*
X014482Y028728D01*
X014464Y028724D01*
X014446Y028724D01*
X014428Y028728D01*
X014411Y028736D01*
X014396Y028747D01*
X014384Y028760D01*
X014375Y028776D01*
X014369Y028794D01*
X014367Y028812D01*
X014331Y028175D02*
X014681Y028175D01*
X014681Y027875D01*
X014331Y027875D01*
X014331Y028175D01*
X014831Y028075D02*
X014831Y027975D01*
X014931Y027975D01*
X014931Y028075D01*
X014831Y028075D01*
X015715Y028300D02*
X015715Y028379D01*
X015715Y027749D02*
X015715Y027670D01*
X015125Y027040D02*
X014337Y027040D01*
X013747Y027670D02*
X013747Y027749D01*
X013747Y028300D02*
X013747Y028379D01*
X013431Y028505D02*
X013431Y028805D01*
X013231Y029505D02*
X012231Y029505D01*
X012231Y026505D01*
X013231Y026505D01*
X013231Y029505D01*
X011955Y029505D02*
X010955Y029505D01*
X010955Y026505D01*
X011955Y026505D01*
X011955Y029505D01*
X010440Y028379D02*
X010440Y028300D01*
X010440Y027749D02*
X010440Y027670D01*
X009849Y027040D02*
X009062Y027040D01*
X009055Y027875D02*
X009405Y027875D01*
X009405Y028175D01*
X009055Y028175D01*
X009055Y027875D01*
X009555Y027975D02*
X009555Y028075D01*
X009655Y028075D01*
X009655Y027975D01*
X009555Y027975D01*
X009092Y028812D02*
X009094Y028830D01*
X009100Y028848D01*
X009109Y028864D01*
X009121Y028877D01*
X009136Y028888D01*
X009153Y028896D01*
X009171Y028900D01*
X009189Y028900D01*
X009207Y028896D01*
X009224Y028888D01*
X009239Y028877D01*
X009251Y028864D01*
X009260Y028848D01*
X009266Y028830D01*
X009268Y028812D01*
X009266Y028794D01*
X009260Y028776D01*
X009251Y028760D01*
X009239Y028747D01*
X009224Y028736D01*
X009207Y028728D01*
X009189Y028724D01*
X009171Y028724D01*
X009153Y028728D01*
X009136Y028736D01*
X009121Y028747D01*
X009109Y028760D01*
X009100Y028776D01*
X009094Y028794D01*
X009092Y028812D01*
X009062Y029009D02*
X009849Y029009D01*
X008471Y028379D02*
X008471Y028300D01*
X008155Y028505D02*
X008155Y028805D01*
X008471Y027749D02*
X008471Y027670D01*
X010955Y026229D02*
X011955Y026229D01*
X011955Y023229D01*
X010955Y023229D01*
X010955Y026229D01*
X012231Y026229D02*
X013231Y026229D01*
X013231Y023229D01*
X012231Y023229D01*
X012231Y026229D01*
X013431Y025529D02*
X013431Y025229D01*
X013747Y025103D02*
X013747Y025025D01*
X013747Y024474D02*
X013747Y024395D01*
X014331Y024599D02*
X014331Y024899D01*
X014681Y024899D01*
X014681Y024599D01*
X014331Y024599D01*
X014831Y024699D02*
X014931Y024699D01*
X014931Y024799D01*
X014831Y024799D01*
X014831Y024699D01*
X014367Y025537D02*
X014369Y025555D01*
X014375Y025573D01*
X014384Y025589D01*
X014396Y025602D01*
X014411Y025613D01*
X014428Y025621D01*
X014446Y025625D01*
X014464Y025625D01*
X014482Y025621D01*
X014499Y025613D01*
X014514Y025602D01*
X014526Y025589D01*
X014535Y025573D01*
X014541Y025555D01*
X014543Y025537D01*
X014541Y025519D01*
X014535Y025501D01*
X014526Y025485D01*
X014514Y025472D01*
X014499Y025461D01*
X014482Y025453D01*
X014464Y025449D01*
X014446Y025449D01*
X014428Y025453D01*
X014411Y025461D01*
X014396Y025472D01*
X014384Y025485D01*
X014375Y025501D01*
X014369Y025519D01*
X014367Y025537D01*
X014337Y025733D02*
X015125Y025733D01*
X015715Y025103D02*
X015715Y025025D01*
X015715Y024474D02*
X015715Y024395D01*
X015125Y023765D02*
X014337Y023765D01*
X013231Y022954D02*
X012231Y022954D01*
X012231Y019954D01*
X013231Y019954D01*
X013231Y022954D01*
X013431Y022254D02*
X013431Y021954D01*
X013747Y021828D02*
X013747Y021749D01*
X013747Y021198D02*
X013747Y021119D01*
X014331Y021324D02*
X014681Y021324D01*
X014681Y021624D01*
X014331Y021624D01*
X014331Y021324D01*
X014831Y021424D02*
X014931Y021424D01*
X014931Y021524D01*
X014831Y021524D01*
X014831Y021424D01*
X014367Y022261D02*
X014369Y022279D01*
X014375Y022297D01*
X014384Y022313D01*
X014396Y022326D01*
X014411Y022337D01*
X014428Y022345D01*
X014446Y022349D01*
X014464Y022349D01*
X014482Y022345D01*
X014499Y022337D01*
X014514Y022326D01*
X014526Y022313D01*
X014535Y022297D01*
X014541Y022279D01*
X014543Y022261D01*
X014541Y022243D01*
X014535Y022225D01*
X014526Y022209D01*
X014514Y022196D01*
X014499Y022185D01*
X014482Y022177D01*
X014464Y022173D01*
X014446Y022173D01*
X014428Y022177D01*
X014411Y022185D01*
X014396Y022196D01*
X014384Y022209D01*
X014375Y022225D01*
X014369Y022243D01*
X014367Y022261D01*
X014337Y022458D02*
X015125Y022458D01*
X015715Y021828D02*
X015715Y021749D01*
X015715Y021198D02*
X015715Y021119D01*
X015125Y020489D02*
X014337Y020489D01*
X014337Y019182D02*
X015125Y019182D01*
X014367Y018985D02*
X014369Y019003D01*
X014375Y019021D01*
X014384Y019037D01*
X014396Y019050D01*
X014411Y019061D01*
X014428Y019069D01*
X014446Y019073D01*
X014464Y019073D01*
X014482Y019069D01*
X014499Y019061D01*
X014514Y019050D01*
X014526Y019037D01*
X014535Y019021D01*
X014541Y019003D01*
X014543Y018985D01*
X014541Y018967D01*
X014535Y018949D01*
X014526Y018933D01*
X014514Y018920D01*
X014499Y018909D01*
X014482Y018901D01*
X014464Y018897D01*
X014446Y018897D01*
X014428Y018901D01*
X014411Y018909D01*
X014396Y018920D01*
X014384Y018933D01*
X014375Y018949D01*
X014369Y018967D01*
X014367Y018985D01*
X014331Y018348D02*
X014681Y018348D01*
X014681Y018048D01*
X014331Y018048D01*
X014331Y018348D01*
X014831Y018248D02*
X014831Y018148D01*
X014931Y018148D01*
X014931Y018248D01*
X014831Y018248D01*
X015715Y018474D02*
X015715Y018552D01*
X015715Y017922D02*
X015715Y017844D01*
X015125Y017214D02*
X014337Y017214D01*
X013747Y017844D02*
X013747Y017922D01*
X013747Y018474D02*
X013747Y018552D01*
X013431Y018678D02*
X013431Y018978D01*
X013231Y019678D02*
X012231Y019678D01*
X012231Y016678D01*
X013231Y016678D01*
X013231Y019678D01*
X011955Y019678D02*
X010955Y019678D01*
X010955Y016678D01*
X011955Y016678D01*
X011955Y019678D01*
X011955Y019954D02*
X011955Y022954D01*
X010955Y022954D01*
X010955Y019954D01*
X011955Y019954D01*
X010440Y018552D02*
X010440Y018474D01*
X010440Y017922D02*
X010440Y017844D01*
X009849Y017214D02*
X009062Y017214D01*
X009055Y018048D02*
X009405Y018048D01*
X009405Y018348D01*
X009055Y018348D01*
X009055Y018048D01*
X009555Y018148D02*
X009555Y018248D01*
X009655Y018248D01*
X009655Y018148D01*
X009555Y018148D01*
X009092Y018985D02*
X009094Y019003D01*
X009100Y019021D01*
X009109Y019037D01*
X009121Y019050D01*
X009136Y019061D01*
X009153Y019069D01*
X009171Y019073D01*
X009189Y019073D01*
X009207Y019069D01*
X009224Y019061D01*
X009239Y019050D01*
X009251Y019037D01*
X009260Y019021D01*
X009266Y019003D01*
X009268Y018985D01*
X009266Y018967D01*
X009260Y018949D01*
X009251Y018933D01*
X009239Y018920D01*
X009224Y018909D01*
X009207Y018901D01*
X009189Y018897D01*
X009171Y018897D01*
X009153Y018901D01*
X009136Y018909D01*
X009121Y018920D01*
X009109Y018933D01*
X009100Y018949D01*
X009094Y018967D01*
X009092Y018985D01*
X009062Y019182D02*
X009849Y019182D01*
X008471Y018552D02*
X008471Y018474D01*
X008155Y018678D02*
X008155Y018978D01*
X008471Y017922D02*
X008471Y017844D01*
X010955Y016402D02*
X011955Y016402D01*
X011955Y013402D01*
X010955Y013402D01*
X010955Y016402D01*
X012231Y016402D02*
X013231Y016402D01*
X013231Y013402D01*
X012231Y013402D01*
X012231Y016402D01*
X013431Y015702D02*
X013431Y015402D01*
X013747Y015277D02*
X013747Y015198D01*
X013747Y014647D02*
X013747Y014568D01*
X014331Y014772D02*
X014331Y015072D01*
X014681Y015072D01*
X014681Y014772D01*
X014331Y014772D01*
X014831Y014872D02*
X014931Y014872D01*
X014931Y014972D01*
X014831Y014972D01*
X014831Y014872D01*
X014367Y015710D02*
X014369Y015728D01*
X014375Y015746D01*
X014384Y015762D01*
X014396Y015775D01*
X014411Y015786D01*
X014428Y015794D01*
X014446Y015798D01*
X014464Y015798D01*
X014482Y015794D01*
X014499Y015786D01*
X014514Y015775D01*
X014526Y015762D01*
X014535Y015746D01*
X014541Y015728D01*
X014543Y015710D01*
X014541Y015692D01*
X014535Y015674D01*
X014526Y015658D01*
X014514Y015645D01*
X014499Y015634D01*
X014482Y015626D01*
X014464Y015622D01*
X014446Y015622D01*
X014428Y015626D01*
X014411Y015634D01*
X014396Y015645D01*
X014384Y015658D01*
X014375Y015674D01*
X014369Y015692D01*
X014367Y015710D01*
X014337Y015907D02*
X015125Y015907D01*
X015715Y015277D02*
X015715Y015198D01*
X015715Y014647D02*
X015715Y014568D01*
X015125Y013938D02*
X014337Y013938D01*
X013231Y013127D02*
X012231Y013127D01*
X012231Y010127D01*
X013231Y010127D01*
X013231Y013127D01*
X013431Y012427D02*
X013431Y012127D01*
X013747Y012001D02*
X013747Y011922D01*
X013747Y011371D02*
X013747Y011292D01*
X014331Y011497D02*
X014681Y011497D01*
X014681Y011797D01*
X014331Y011797D01*
X014331Y011497D01*
X014831Y011597D02*
X014931Y011597D01*
X014931Y011697D01*
X014831Y011697D01*
X014831Y011597D01*
X014367Y012434D02*
X014369Y012452D01*
X014375Y012470D01*
X014384Y012486D01*
X014396Y012499D01*
X014411Y012510D01*
X014428Y012518D01*
X014446Y012522D01*
X014464Y012522D01*
X014482Y012518D01*
X014499Y012510D01*
X014514Y012499D01*
X014526Y012486D01*
X014535Y012470D01*
X014541Y012452D01*
X014543Y012434D01*
X014541Y012416D01*
X014535Y012398D01*
X014526Y012382D01*
X014514Y012369D01*
X014499Y012358D01*
X014482Y012350D01*
X014464Y012346D01*
X014446Y012346D01*
X014428Y012350D01*
X014411Y012358D01*
X014396Y012369D01*
X014384Y012382D01*
X014375Y012398D01*
X014369Y012416D01*
X014367Y012434D01*
X014337Y012631D02*
X015125Y012631D01*
X015715Y012001D02*
X015715Y011922D01*
X015715Y011371D02*
X015715Y011292D01*
X015125Y010663D02*
X014337Y010663D01*
X013231Y009851D02*
X012231Y009851D01*
X012231Y006851D01*
X013231Y006851D01*
X013231Y009851D01*
X013431Y009151D02*
X013431Y008851D01*
X013747Y008726D02*
X013747Y008647D01*
X013747Y008096D02*
X013747Y008017D01*
X014331Y008221D02*
X014681Y008221D01*
X014681Y008521D01*
X014331Y008521D01*
X014331Y008221D01*
X014831Y008321D02*
X014931Y008321D01*
X014931Y008421D01*
X014831Y008421D01*
X014831Y008321D01*
X014367Y009159D02*
X014369Y009177D01*
X014375Y009195D01*
X014384Y009211D01*
X014396Y009224D01*
X014411Y009235D01*
X014428Y009243D01*
X014446Y009247D01*
X014464Y009247D01*
X014482Y009243D01*
X014499Y009235D01*
X014514Y009224D01*
X014526Y009211D01*
X014535Y009195D01*
X014541Y009177D01*
X014543Y009159D01*
X014541Y009141D01*
X014535Y009123D01*
X014526Y009107D01*
X014514Y009094D01*
X014499Y009083D01*
X014482Y009075D01*
X014464Y009071D01*
X014446Y009071D01*
X014428Y009075D01*
X014411Y009083D01*
X014396Y009094D01*
X014384Y009107D01*
X014375Y009123D01*
X014369Y009141D01*
X014367Y009159D01*
X014337Y009355D02*
X015125Y009355D01*
X015715Y008726D02*
X015715Y008647D01*
X015715Y008096D02*
X015715Y008017D01*
X015125Y007387D02*
X014337Y007387D01*
X013231Y006576D02*
X012231Y006576D01*
X012231Y003576D01*
X013231Y003576D01*
X013231Y006576D01*
X013431Y005876D02*
X013431Y005576D01*
X013747Y005450D02*
X013747Y005371D01*
X013747Y004820D02*
X013747Y004741D01*
X011955Y003576D02*
X011955Y006576D01*
X010955Y006576D01*
X010955Y003576D01*
X011955Y003576D01*
X010440Y004741D02*
X010440Y004820D01*
X010440Y005371D02*
X010440Y005450D01*
X009849Y006080D02*
X009062Y006080D01*
X009092Y005883D02*
X009094Y005901D01*
X009100Y005919D01*
X009109Y005935D01*
X009121Y005948D01*
X009136Y005959D01*
X009153Y005967D01*
X009171Y005971D01*
X009189Y005971D01*
X009207Y005967D01*
X009224Y005959D01*
X009239Y005948D01*
X009251Y005935D01*
X009260Y005919D01*
X009266Y005901D01*
X009268Y005883D01*
X009266Y005865D01*
X009260Y005847D01*
X009251Y005831D01*
X009239Y005818D01*
X009224Y005807D01*
X009207Y005799D01*
X009189Y005795D01*
X009171Y005795D01*
X009153Y005799D01*
X009136Y005807D01*
X009121Y005818D01*
X009109Y005831D01*
X009100Y005847D01*
X009094Y005865D01*
X009092Y005883D01*
X009055Y005246D02*
X009405Y005246D01*
X009405Y004946D01*
X009055Y004946D01*
X009055Y005246D01*
X009555Y005146D02*
X009555Y005046D01*
X009655Y005046D01*
X009655Y005146D01*
X009555Y005146D01*
X009849Y004111D02*
X009062Y004111D01*
X008471Y004741D02*
X008471Y004820D01*
X008471Y005371D02*
X008471Y005450D01*
X008155Y005576D02*
X008155Y005876D01*
X007955Y006851D02*
X006955Y006851D01*
X006955Y009851D01*
X007955Y009851D01*
X007955Y006851D01*
X008471Y008017D02*
X008471Y008096D01*
X008471Y008647D02*
X008471Y008726D01*
X008155Y008851D02*
X008155Y009151D01*
X009062Y009355D02*
X009849Y009355D01*
X009092Y009159D02*
X009094Y009177D01*
X009100Y009195D01*
X009109Y009211D01*
X009121Y009224D01*
X009136Y009235D01*
X009153Y009243D01*
X009171Y009247D01*
X009189Y009247D01*
X009207Y009243D01*
X009224Y009235D01*
X009239Y009224D01*
X009251Y009211D01*
X009260Y009195D01*
X009266Y009177D01*
X009268Y009159D01*
X009266Y009141D01*
X009260Y009123D01*
X009251Y009107D01*
X009239Y009094D01*
X009224Y009083D01*
X009207Y009075D01*
X009189Y009071D01*
X009171Y009071D01*
X009153Y009075D01*
X009136Y009083D01*
X009121Y009094D01*
X009109Y009107D01*
X009100Y009123D01*
X009094Y009141D01*
X009092Y009159D01*
X009055Y008521D02*
X009405Y008521D01*
X009405Y008221D01*
X009055Y008221D01*
X009055Y008521D01*
X009555Y008421D02*
X009655Y008421D01*
X009655Y008321D01*
X009555Y008321D01*
X009555Y008421D01*
X010440Y008647D02*
X010440Y008726D01*
X010440Y008096D02*
X010440Y008017D01*
X009849Y007387D02*
X009062Y007387D01*
X010955Y006851D02*
X011955Y006851D01*
X011955Y009851D01*
X010955Y009851D01*
X010955Y006851D01*
X010955Y010127D02*
X011955Y010127D01*
X011955Y013127D01*
X010955Y013127D01*
X010955Y010127D01*
X010440Y011292D02*
X010440Y011371D01*
X010440Y011922D02*
X010440Y012001D01*
X016231Y013127D02*
X016231Y010127D01*
X017231Y010127D01*
X017231Y013127D01*
X016231Y013127D01*
X016231Y013402D02*
X017231Y013402D01*
X017231Y016402D01*
X016231Y016402D01*
X016231Y013402D01*
X017507Y013402D02*
X018507Y013402D01*
X018507Y016402D01*
X017507Y016402D01*
X017507Y013402D01*
X017507Y013127D02*
X018507Y013127D01*
X018507Y010127D01*
X017507Y010127D01*
X017507Y013127D01*
X018707Y012427D02*
X018707Y012127D01*
X019022Y012001D02*
X019022Y011922D01*
X019022Y011371D02*
X019022Y011292D01*
X019607Y011497D02*
X019957Y011497D01*
X019957Y011797D01*
X019607Y011797D01*
X019607Y011497D01*
X020107Y011597D02*
X020207Y011597D01*
X020207Y011697D01*
X020107Y011697D01*
X020107Y011597D01*
X019643Y012434D02*
X019645Y012452D01*
X019651Y012470D01*
X019660Y012486D01*
X019672Y012499D01*
X019687Y012510D01*
X019704Y012518D01*
X019722Y012522D01*
X019740Y012522D01*
X019758Y012518D01*
X019775Y012510D01*
X019790Y012499D01*
X019802Y012486D01*
X019811Y012470D01*
X019817Y012452D01*
X019819Y012434D01*
X019817Y012416D01*
X019811Y012398D01*
X019802Y012382D01*
X019790Y012369D01*
X019775Y012358D01*
X019758Y012350D01*
X019740Y012346D01*
X019722Y012346D01*
X019704Y012350D01*
X019687Y012358D01*
X019672Y012369D01*
X019660Y012382D01*
X019651Y012398D01*
X019645Y012416D01*
X019643Y012434D01*
X019613Y012631D02*
X020400Y012631D01*
X020991Y012001D02*
X020991Y011922D01*
X020991Y011371D02*
X020991Y011292D01*
X020400Y010663D02*
X019613Y010663D01*
X018507Y009851D02*
X017507Y009851D01*
X017507Y006851D01*
X018507Y006851D01*
X018507Y009851D01*
X018707Y009151D02*
X018707Y008851D01*
X019022Y008726D02*
X019022Y008647D01*
X019022Y008096D02*
X019022Y008017D01*
X019607Y008221D02*
X019957Y008221D01*
X019957Y008521D01*
X019607Y008521D01*
X019607Y008221D01*
X020107Y008321D02*
X020207Y008321D01*
X020207Y008421D01*
X020107Y008421D01*
X020107Y008321D01*
X019643Y009159D02*
X019645Y009177D01*
X019651Y009195D01*
X019660Y009211D01*
X019672Y009224D01*
X019687Y009235D01*
X019704Y009243D01*
X019722Y009247D01*
X019740Y009247D01*
X019758Y009243D01*
X019775Y009235D01*
X019790Y009224D01*
X019802Y009211D01*
X019811Y009195D01*
X019817Y009177D01*
X019819Y009159D01*
X019817Y009141D01*
X019811Y009123D01*
X019802Y009107D01*
X019790Y009094D01*
X019775Y009083D01*
X019758Y009075D01*
X019740Y009071D01*
X019722Y009071D01*
X019704Y009075D01*
X019687Y009083D01*
X019672Y009094D01*
X019660Y009107D01*
X019651Y009123D01*
X019645Y009141D01*
X019643Y009159D01*
X019613Y009355D02*
X020400Y009355D01*
X020991Y008726D02*
X020991Y008647D01*
X020991Y008096D02*
X020991Y008017D01*
X020400Y007387D02*
X019613Y007387D01*
X019613Y006080D02*
X020400Y006080D01*
X019643Y005883D02*
X019645Y005901D01*
X019651Y005919D01*
X019660Y005935D01*
X019672Y005948D01*
X019687Y005959D01*
X019704Y005967D01*
X019722Y005971D01*
X019740Y005971D01*
X019758Y005967D01*
X019775Y005959D01*
X019790Y005948D01*
X019802Y005935D01*
X019811Y005919D01*
X019817Y005901D01*
X019819Y005883D01*
X019817Y005865D01*
X019811Y005847D01*
X019802Y005831D01*
X019790Y005818D01*
X019775Y005807D01*
X019758Y005799D01*
X019740Y005795D01*
X019722Y005795D01*
X019704Y005799D01*
X019687Y005807D01*
X019672Y005818D01*
X019660Y005831D01*
X019651Y005847D01*
X019645Y005865D01*
X019643Y005883D01*
X019607Y005246D02*
X019957Y005246D01*
X019957Y004946D01*
X019607Y004946D01*
X019607Y005246D01*
X020107Y005146D02*
X020107Y005046D01*
X020207Y005046D01*
X020207Y005146D01*
X020107Y005146D01*
X020991Y005371D02*
X020991Y005450D01*
X020991Y004820D02*
X020991Y004741D01*
X020400Y004111D02*
X019613Y004111D01*
X019022Y004741D02*
X019022Y004820D01*
X019022Y005371D02*
X019022Y005450D01*
X018707Y005576D02*
X018707Y005876D01*
X017231Y006851D02*
X017231Y009851D01*
X016231Y009851D01*
X016231Y006851D01*
X017231Y006851D01*
X021507Y006851D02*
X022507Y006851D01*
X022507Y009851D01*
X021507Y009851D01*
X021507Y006851D01*
X021507Y006576D02*
X022507Y006576D01*
X022507Y003576D01*
X021507Y003576D01*
X021507Y006576D01*
X022782Y006576D02*
X023782Y006576D01*
X023782Y003576D01*
X022782Y003576D01*
X022782Y006576D01*
X022782Y006851D02*
X023782Y006851D01*
X023782Y009851D01*
X022782Y009851D01*
X022782Y006851D01*
X023982Y005876D02*
X023982Y005576D01*
X024298Y005450D02*
X024298Y005371D01*
X024298Y004820D02*
X024298Y004741D01*
X024882Y004946D02*
X025232Y004946D01*
X025232Y005246D01*
X024882Y005246D01*
X024882Y004946D01*
X025382Y005046D02*
X025482Y005046D01*
X025482Y005146D01*
X025382Y005146D01*
X025382Y005046D01*
X026266Y004820D02*
X026266Y004741D01*
X026266Y005371D02*
X026266Y005450D01*
X025676Y006080D02*
X024888Y006080D01*
X024919Y005883D02*
X024921Y005901D01*
X024927Y005919D01*
X024936Y005935D01*
X024948Y005948D01*
X024963Y005959D01*
X024980Y005967D01*
X024998Y005971D01*
X025016Y005971D01*
X025034Y005967D01*
X025051Y005959D01*
X025066Y005948D01*
X025078Y005935D01*
X025087Y005919D01*
X025093Y005901D01*
X025095Y005883D01*
X025093Y005865D01*
X025087Y005847D01*
X025078Y005831D01*
X025066Y005818D01*
X025051Y005807D01*
X025034Y005799D01*
X025016Y005795D01*
X024998Y005795D01*
X024980Y005799D01*
X024963Y005807D01*
X024948Y005818D01*
X024936Y005831D01*
X024927Y005847D01*
X024921Y005865D01*
X024919Y005883D01*
X024888Y007387D02*
X025676Y007387D01*
X026266Y008017D02*
X026266Y008096D01*
X026266Y008647D02*
X026266Y008726D01*
X025482Y008421D02*
X025482Y008321D01*
X025382Y008321D01*
X025382Y008421D01*
X025482Y008421D01*
X025232Y008521D02*
X025232Y008221D01*
X024882Y008221D01*
X024882Y008521D01*
X025232Y008521D01*
X024919Y009159D02*
X024921Y009177D01*
X024927Y009195D01*
X024936Y009211D01*
X024948Y009224D01*
X024963Y009235D01*
X024980Y009243D01*
X024998Y009247D01*
X025016Y009247D01*
X025034Y009243D01*
X025051Y009235D01*
X025066Y009224D01*
X025078Y009211D01*
X025087Y009195D01*
X025093Y009177D01*
X025095Y009159D01*
X025093Y009141D01*
X025087Y009123D01*
X025078Y009107D01*
X025066Y009094D01*
X025051Y009083D01*
X025034Y009075D01*
X025016Y009071D01*
X024998Y009071D01*
X024980Y009075D01*
X024963Y009083D01*
X024948Y009094D01*
X024936Y009107D01*
X024927Y009123D01*
X024921Y009141D01*
X024919Y009159D01*
X024888Y009355D02*
X025676Y009355D01*
X026782Y009851D02*
X027782Y009851D01*
X027782Y006851D01*
X026782Y006851D01*
X026782Y009851D01*
X026782Y010127D02*
X027782Y010127D01*
X027782Y013127D01*
X026782Y013127D01*
X026782Y010127D01*
X026266Y011292D02*
X026266Y011371D01*
X026266Y011922D02*
X026266Y012001D01*
X025482Y011697D02*
X025482Y011597D01*
X025382Y011597D01*
X025382Y011697D01*
X025482Y011697D01*
X025232Y011797D02*
X025232Y011497D01*
X024882Y011497D01*
X024882Y011797D01*
X025232Y011797D01*
X024919Y012434D02*
X024921Y012452D01*
X024927Y012470D01*
X024936Y012486D01*
X024948Y012499D01*
X024963Y012510D01*
X024980Y012518D01*
X024998Y012522D01*
X025016Y012522D01*
X025034Y012518D01*
X025051Y012510D01*
X025066Y012499D01*
X025078Y012486D01*
X025087Y012470D01*
X025093Y012452D01*
X025095Y012434D01*
X025093Y012416D01*
X025087Y012398D01*
X025078Y012382D01*
X025066Y012369D01*
X025051Y012358D01*
X025034Y012350D01*
X025016Y012346D01*
X024998Y012346D01*
X024980Y012350D01*
X024963Y012358D01*
X024948Y012369D01*
X024936Y012382D01*
X024927Y012398D01*
X024921Y012416D01*
X024919Y012434D01*
X024888Y012631D02*
X025676Y012631D01*
X025676Y013938D02*
X024888Y013938D01*
X024882Y014772D02*
X025232Y014772D01*
X025232Y015072D01*
X024882Y015072D01*
X024882Y014772D01*
X025382Y014872D02*
X025482Y014872D01*
X025482Y014972D01*
X025382Y014972D01*
X025382Y014872D01*
X026266Y014647D02*
X026266Y014568D01*
X026266Y015198D02*
X026266Y015277D01*
X025676Y015907D02*
X024888Y015907D01*
X024919Y015710D02*
X024921Y015728D01*
X024927Y015746D01*
X024936Y015762D01*
X024948Y015775D01*
X024963Y015786D01*
X024980Y015794D01*
X024998Y015798D01*
X025016Y015798D01*
X025034Y015794D01*
X025051Y015786D01*
X025066Y015775D01*
X025078Y015762D01*
X025087Y015746D01*
X025093Y015728D01*
X025095Y015710D01*
X025093Y015692D01*
X025087Y015674D01*
X025078Y015658D01*
X025066Y015645D01*
X025051Y015634D01*
X025034Y015626D01*
X025016Y015622D01*
X024998Y015622D01*
X024980Y015626D01*
X024963Y015634D01*
X024948Y015645D01*
X024936Y015658D01*
X024927Y015674D01*
X024921Y015692D01*
X024919Y015710D01*
X024298Y015277D02*
X024298Y015198D01*
X023982Y015402D02*
X023982Y015702D01*
X023782Y016402D02*
X022782Y016402D01*
X022782Y013402D01*
X023782Y013402D01*
X023782Y016402D01*
X023782Y016678D02*
X022782Y016678D01*
X022782Y019678D01*
X023782Y019678D01*
X023782Y016678D01*
X024888Y017214D02*
X025676Y017214D01*
X026266Y017844D02*
X026266Y017922D01*
X026266Y018474D02*
X026266Y018552D01*
X025482Y018248D02*
X025482Y018148D01*
X025382Y018148D01*
X025382Y018248D01*
X025482Y018248D01*
X025232Y018348D02*
X025232Y018048D01*
X024882Y018048D01*
X024882Y018348D01*
X025232Y018348D01*
X024919Y018985D02*
X024921Y019003D01*
X024927Y019021D01*
X024936Y019037D01*
X024948Y019050D01*
X024963Y019061D01*
X024980Y019069D01*
X024998Y019073D01*
X025016Y019073D01*
X025034Y019069D01*
X025051Y019061D01*
X025066Y019050D01*
X025078Y019037D01*
X025087Y019021D01*
X025093Y019003D01*
X025095Y018985D01*
X025093Y018967D01*
X025087Y018949D01*
X025078Y018933D01*
X025066Y018920D01*
X025051Y018909D01*
X025034Y018901D01*
X025016Y018897D01*
X024998Y018897D01*
X024980Y018901D01*
X024963Y018909D01*
X024948Y018920D01*
X024936Y018933D01*
X024927Y018949D01*
X024921Y018967D01*
X024919Y018985D01*
X024888Y019182D02*
X025676Y019182D01*
X025676Y020489D02*
X024888Y020489D01*
X024298Y021119D02*
X024298Y021198D01*
X024298Y021749D02*
X024298Y021828D01*
X023982Y021954D02*
X023982Y022254D01*
X023782Y022954D02*
X022782Y022954D01*
X022782Y019954D01*
X023782Y019954D01*
X023782Y022954D01*
X023782Y023229D02*
X022782Y023229D01*
X022782Y026229D01*
X023782Y026229D01*
X023782Y023229D01*
X024888Y023765D02*
X025676Y023765D01*
X026266Y024395D02*
X026266Y024474D01*
X026266Y025025D02*
X026266Y025103D01*
X025482Y024799D02*
X025482Y024699D01*
X025382Y024699D01*
X025382Y024799D01*
X025482Y024799D01*
X025232Y024899D02*
X025232Y024599D01*
X024882Y024599D01*
X024882Y024899D01*
X025232Y024899D01*
X024919Y025537D02*
X024921Y025555D01*
X024927Y025573D01*
X024936Y025589D01*
X024948Y025602D01*
X024963Y025613D01*
X024980Y025621D01*
X024998Y025625D01*
X025016Y025625D01*
X025034Y025621D01*
X025051Y025613D01*
X025066Y025602D01*
X025078Y025589D01*
X025087Y025573D01*
X025093Y025555D01*
X025095Y025537D01*
X025093Y025519D01*
X025087Y025501D01*
X025078Y025485D01*
X025066Y025472D01*
X025051Y025461D01*
X025034Y025453D01*
X025016Y025449D01*
X024998Y025449D01*
X024980Y025453D01*
X024963Y025461D01*
X024948Y025472D01*
X024936Y025485D01*
X024927Y025501D01*
X024921Y025519D01*
X024919Y025537D01*
X024888Y025733D02*
X025676Y025733D01*
X026782Y026229D02*
X027782Y026229D01*
X027782Y023229D01*
X026782Y023229D01*
X026782Y026229D01*
X026782Y026505D02*
X027782Y026505D01*
X027782Y029505D01*
X026782Y029505D01*
X026782Y026505D01*
X029258Y025529D02*
X029258Y025229D01*
X029574Y025103D02*
X029574Y025025D01*
X029574Y024474D02*
X029574Y024395D01*
X027782Y022954D02*
X026782Y022954D01*
X026782Y019954D01*
X027782Y019954D01*
X027782Y022954D01*
X026266Y021828D02*
X026266Y021749D01*
X026266Y021198D02*
X026266Y021119D01*
X025482Y021424D02*
X025382Y021424D01*
X025382Y021524D01*
X025482Y021524D01*
X025482Y021424D01*
X025232Y021324D02*
X024882Y021324D01*
X024882Y021624D01*
X025232Y021624D01*
X025232Y021324D01*
X024919Y022261D02*
X024921Y022279D01*
X024927Y022297D01*
X024936Y022313D01*
X024948Y022326D01*
X024963Y022337D01*
X024980Y022345D01*
X024998Y022349D01*
X025016Y022349D01*
X025034Y022345D01*
X025051Y022337D01*
X025066Y022326D01*
X025078Y022313D01*
X025087Y022297D01*
X025093Y022279D01*
X025095Y022261D01*
X025093Y022243D01*
X025087Y022225D01*
X025078Y022209D01*
X025066Y022196D01*
X025051Y022185D01*
X025034Y022177D01*
X025016Y022173D01*
X024998Y022173D01*
X024980Y022177D01*
X024963Y022185D01*
X024948Y022196D01*
X024936Y022209D01*
X024927Y022225D01*
X024921Y022243D01*
X024919Y022261D01*
X024888Y022458D02*
X025676Y022458D01*
X024298Y024395D02*
X024298Y024474D01*
X024298Y025025D02*
X024298Y025103D01*
X023982Y025229D02*
X023982Y025529D01*
X022507Y026229D02*
X021507Y026229D01*
X021507Y023229D01*
X022507Y023229D01*
X022507Y026229D01*
X022507Y026505D02*
X022507Y029505D01*
X021507Y029505D01*
X021507Y026505D01*
X022507Y026505D01*
X020991Y027670D02*
X020991Y027749D01*
X020991Y028300D02*
X020991Y028379D01*
X020207Y028075D02*
X020207Y027975D01*
X020107Y027975D01*
X020107Y028075D01*
X020207Y028075D01*
X019957Y028175D02*
X019957Y027875D01*
X019607Y027875D01*
X019607Y028175D01*
X019957Y028175D01*
X019643Y028812D02*
X019645Y028830D01*
X019651Y028848D01*
X019660Y028864D01*
X019672Y028877D01*
X019687Y028888D01*
X019704Y028896D01*
X019722Y028900D01*
X019740Y028900D01*
X019758Y028896D01*
X019775Y028888D01*
X019790Y028877D01*
X019802Y028864D01*
X019811Y028848D01*
X019817Y028830D01*
X019819Y028812D01*
X019817Y028794D01*
X019811Y028776D01*
X019802Y028760D01*
X019790Y028747D01*
X019775Y028736D01*
X019758Y028728D01*
X019740Y028724D01*
X019722Y028724D01*
X019704Y028728D01*
X019687Y028736D01*
X019672Y028747D01*
X019660Y028760D01*
X019651Y028776D01*
X019645Y028794D01*
X019643Y028812D01*
X019613Y029009D02*
X020400Y029009D01*
X020400Y030316D02*
X019613Y030316D01*
X019607Y031150D02*
X019957Y031150D01*
X019957Y031450D01*
X019607Y031450D01*
X019607Y031150D01*
X020107Y031250D02*
X020207Y031250D01*
X020207Y031350D01*
X020107Y031350D01*
X020107Y031250D01*
X019643Y032088D02*
X019645Y032106D01*
X019651Y032124D01*
X019660Y032140D01*
X019672Y032153D01*
X019687Y032164D01*
X019704Y032172D01*
X019722Y032176D01*
X019740Y032176D01*
X019758Y032172D01*
X019775Y032164D01*
X019790Y032153D01*
X019802Y032140D01*
X019811Y032124D01*
X019817Y032106D01*
X019819Y032088D01*
X019817Y032070D01*
X019811Y032052D01*
X019802Y032036D01*
X019790Y032023D01*
X019775Y032012D01*
X019758Y032004D01*
X019740Y032000D01*
X019722Y032000D01*
X019704Y032004D01*
X019687Y032012D01*
X019672Y032023D01*
X019660Y032036D01*
X019651Y032052D01*
X019645Y032070D01*
X019643Y032088D01*
X019613Y032285D02*
X020400Y032285D01*
X020991Y031655D02*
X020991Y031576D01*
X020991Y031025D02*
X020991Y030946D01*
X019022Y030946D02*
X019022Y031025D01*
X019022Y031576D02*
X019022Y031655D01*
X018707Y031780D02*
X018707Y032080D01*
X018507Y032780D02*
X017507Y032780D01*
X017507Y029780D01*
X018507Y029780D01*
X018507Y032780D01*
X018507Y033056D02*
X017507Y033056D01*
X017507Y036056D01*
X018507Y036056D01*
X018507Y033056D01*
X019613Y033592D02*
X020400Y033592D01*
X019022Y034222D02*
X019022Y034300D01*
X019022Y034851D02*
X019022Y034930D01*
X018707Y035056D02*
X018707Y035356D01*
X017231Y036056D02*
X016231Y036056D01*
X016231Y033056D01*
X017231Y033056D01*
X017231Y036056D01*
X015715Y034930D02*
X015715Y034851D01*
X015715Y034300D02*
X015715Y034222D01*
X015125Y033592D02*
X014337Y033592D01*
X014331Y034426D02*
X014681Y034426D01*
X014681Y034726D01*
X014331Y034726D01*
X014331Y034426D01*
X014831Y034526D02*
X014931Y034526D01*
X014931Y034626D01*
X014831Y034626D01*
X014831Y034526D01*
X014367Y035363D02*
X014369Y035381D01*
X014375Y035399D01*
X014384Y035415D01*
X014396Y035428D01*
X014411Y035439D01*
X014428Y035447D01*
X014446Y035451D01*
X014464Y035451D01*
X014482Y035447D01*
X014499Y035439D01*
X014514Y035428D01*
X014526Y035415D01*
X014535Y035399D01*
X014541Y035381D01*
X014543Y035363D01*
X014541Y035345D01*
X014535Y035327D01*
X014526Y035311D01*
X014514Y035298D01*
X014499Y035287D01*
X014482Y035279D01*
X014464Y035275D01*
X014446Y035275D01*
X014428Y035279D01*
X014411Y035287D01*
X014396Y035298D01*
X014384Y035311D01*
X014375Y035327D01*
X014369Y035345D01*
X014367Y035363D01*
X014337Y035560D02*
X015125Y035560D01*
X013747Y034930D02*
X013747Y034851D01*
X013431Y035056D02*
X013431Y035356D01*
X013747Y034300D02*
X013747Y034222D01*
X016231Y032780D02*
X017231Y032780D01*
X017231Y029780D01*
X016231Y029780D01*
X016231Y032780D01*
X016231Y029505D02*
X017231Y029505D01*
X017231Y026505D01*
X016231Y026505D01*
X016231Y029505D01*
X017507Y029505D02*
X018507Y029505D01*
X018507Y026505D01*
X017507Y026505D01*
X017507Y029505D01*
X018707Y028805D02*
X018707Y028505D01*
X019022Y028379D02*
X019022Y028300D01*
X019022Y027749D02*
X019022Y027670D01*
X019613Y027040D02*
X020400Y027040D01*
X020400Y025733D02*
X019613Y025733D01*
X019643Y025537D02*
X019645Y025555D01*
X019651Y025573D01*
X019660Y025589D01*
X019672Y025602D01*
X019687Y025613D01*
X019704Y025621D01*
X019722Y025625D01*
X019740Y025625D01*
X019758Y025621D01*
X019775Y025613D01*
X019790Y025602D01*
X019802Y025589D01*
X019811Y025573D01*
X019817Y025555D01*
X019819Y025537D01*
X019817Y025519D01*
X019811Y025501D01*
X019802Y025485D01*
X019790Y025472D01*
X019775Y025461D01*
X019758Y025453D01*
X019740Y025449D01*
X019722Y025449D01*
X019704Y025453D01*
X019687Y025461D01*
X019672Y025472D01*
X019660Y025485D01*
X019651Y025501D01*
X019645Y025519D01*
X019643Y025537D01*
X019607Y024899D02*
X019957Y024899D01*
X019957Y024599D01*
X019607Y024599D01*
X019607Y024899D01*
X020107Y024799D02*
X020207Y024799D01*
X020207Y024699D01*
X020107Y024699D01*
X020107Y024799D01*
X020400Y023765D02*
X019613Y023765D01*
X019022Y024395D02*
X019022Y024474D01*
X019022Y025025D02*
X019022Y025103D01*
X018707Y025229D02*
X018707Y025529D01*
X018507Y026229D02*
X017507Y026229D01*
X017507Y023229D01*
X018507Y023229D01*
X018507Y026229D01*
X017231Y026229D02*
X016231Y026229D01*
X016231Y023229D01*
X017231Y023229D01*
X017231Y026229D01*
X017231Y022954D02*
X016231Y022954D01*
X016231Y019954D01*
X017231Y019954D01*
X017231Y022954D01*
X017507Y022954D02*
X018507Y022954D01*
X018507Y019954D01*
X017507Y019954D01*
X017507Y022954D01*
X018707Y022254D02*
X018707Y021954D01*
X019022Y021828D02*
X019022Y021749D01*
X019022Y021198D02*
X019022Y021119D01*
X019607Y021324D02*
X019957Y021324D01*
X019957Y021624D01*
X019607Y021624D01*
X019607Y021324D01*
X020107Y021424D02*
X020207Y021424D01*
X020207Y021524D01*
X020107Y021524D01*
X020107Y021424D01*
X019643Y022261D02*
X019645Y022279D01*
X019651Y022297D01*
X019660Y022313D01*
X019672Y022326D01*
X019687Y022337D01*
X019704Y022345D01*
X019722Y022349D01*
X019740Y022349D01*
X019758Y022345D01*
X019775Y022337D01*
X019790Y022326D01*
X019802Y022313D01*
X019811Y022297D01*
X019817Y022279D01*
X019819Y022261D01*
X019817Y022243D01*
X019811Y022225D01*
X019802Y022209D01*
X019790Y022196D01*
X019775Y022185D01*
X019758Y022177D01*
X019740Y022173D01*
X019722Y022173D01*
X019704Y022177D01*
X019687Y022185D01*
X019672Y022196D01*
X019660Y022209D01*
X019651Y022225D01*
X019645Y022243D01*
X019643Y022261D01*
X019613Y022458D02*
X020400Y022458D01*
X020991Y021828D02*
X020991Y021749D01*
X020991Y021198D02*
X020991Y021119D01*
X020400Y020489D02*
X019613Y020489D01*
X019613Y019182D02*
X020400Y019182D01*
X019643Y018985D02*
X019645Y019003D01*
X019651Y019021D01*
X019660Y019037D01*
X019672Y019050D01*
X019687Y019061D01*
X019704Y019069D01*
X019722Y019073D01*
X019740Y019073D01*
X019758Y019069D01*
X019775Y019061D01*
X019790Y019050D01*
X019802Y019037D01*
X019811Y019021D01*
X019817Y019003D01*
X019819Y018985D01*
X019817Y018967D01*
X019811Y018949D01*
X019802Y018933D01*
X019790Y018920D01*
X019775Y018909D01*
X019758Y018901D01*
X019740Y018897D01*
X019722Y018897D01*
X019704Y018901D01*
X019687Y018909D01*
X019672Y018920D01*
X019660Y018933D01*
X019651Y018949D01*
X019645Y018967D01*
X019643Y018985D01*
X019607Y018348D02*
X019957Y018348D01*
X019957Y018048D01*
X019607Y018048D01*
X019607Y018348D01*
X020107Y018248D02*
X020107Y018148D01*
X020207Y018148D01*
X020207Y018248D01*
X020107Y018248D01*
X020991Y018474D02*
X020991Y018552D01*
X020991Y017922D02*
X020991Y017844D01*
X020400Y017214D02*
X019613Y017214D01*
X019022Y017844D02*
X019022Y017922D01*
X019022Y018474D02*
X019022Y018552D01*
X018707Y018678D02*
X018707Y018978D01*
X018507Y019678D02*
X017507Y019678D01*
X017507Y016678D01*
X018507Y016678D01*
X018507Y019678D01*
X017231Y019678D02*
X016231Y019678D01*
X016231Y016678D01*
X017231Y016678D01*
X017231Y019678D01*
X019613Y015907D02*
X020400Y015907D01*
X019643Y015710D02*
X019645Y015728D01*
X019651Y015746D01*
X019660Y015762D01*
X019672Y015775D01*
X019687Y015786D01*
X019704Y015794D01*
X019722Y015798D01*
X019740Y015798D01*
X019758Y015794D01*
X019775Y015786D01*
X019790Y015775D01*
X019802Y015762D01*
X019811Y015746D01*
X019817Y015728D01*
X019819Y015710D01*
X019817Y015692D01*
X019811Y015674D01*
X019802Y015658D01*
X019790Y015645D01*
X019775Y015634D01*
X019758Y015626D01*
X019740Y015622D01*
X019722Y015622D01*
X019704Y015626D01*
X019687Y015634D01*
X019672Y015645D01*
X019660Y015658D01*
X019651Y015674D01*
X019645Y015692D01*
X019643Y015710D01*
X019607Y015072D02*
X019957Y015072D01*
X019957Y014772D01*
X019607Y014772D01*
X019607Y015072D01*
X020107Y014972D02*
X020207Y014972D01*
X020207Y014872D01*
X020107Y014872D01*
X020107Y014972D01*
X020400Y013938D02*
X019613Y013938D01*
X019022Y014568D02*
X019022Y014647D01*
X019022Y015198D02*
X019022Y015277D01*
X018707Y015402D02*
X018707Y015702D01*
X020991Y015277D02*
X020991Y015198D01*
X020991Y014647D02*
X020991Y014568D01*
X021507Y013402D02*
X022507Y013402D01*
X022507Y016402D01*
X021507Y016402D01*
X021507Y013402D01*
X021507Y013127D02*
X022507Y013127D01*
X022507Y010127D01*
X021507Y010127D01*
X021507Y013127D01*
X022782Y013127D02*
X023782Y013127D01*
X023782Y010127D01*
X022782Y010127D01*
X022782Y013127D01*
X023982Y012427D02*
X023982Y012127D01*
X024298Y012001D02*
X024298Y011922D01*
X024298Y011371D02*
X024298Y011292D01*
X024888Y010663D02*
X025676Y010663D01*
X023982Y009151D02*
X023982Y008851D01*
X024298Y008726D02*
X024298Y008647D01*
X024298Y008096D02*
X024298Y008017D01*
X026782Y006576D02*
X027782Y006576D01*
X027782Y003576D01*
X026782Y003576D01*
X026782Y006576D01*
X025676Y004111D02*
X024888Y004111D01*
X029574Y008017D02*
X029574Y008096D01*
X030158Y008221D02*
X030158Y008521D01*
X030508Y008521D01*
X030508Y008221D01*
X030158Y008221D01*
X030658Y008321D02*
X030758Y008321D01*
X030758Y008421D01*
X030658Y008421D01*
X030658Y008321D01*
X032058Y006851D02*
X033058Y006851D01*
X033058Y009851D01*
X032058Y009851D01*
X032058Y006851D01*
X030951Y006080D02*
X030164Y006080D01*
X030194Y005883D02*
X030196Y005901D01*
X030202Y005919D01*
X030211Y005935D01*
X030223Y005948D01*
X030238Y005959D01*
X030255Y005967D01*
X030273Y005971D01*
X030291Y005971D01*
X030309Y005967D01*
X030326Y005959D01*
X030341Y005948D01*
X030353Y005935D01*
X030362Y005919D01*
X030368Y005901D01*
X030370Y005883D01*
X030368Y005865D01*
X030362Y005847D01*
X030353Y005831D01*
X030341Y005818D01*
X030326Y005807D01*
X030309Y005799D01*
X030291Y005795D01*
X030273Y005795D01*
X030255Y005799D01*
X030238Y005807D01*
X030223Y005818D01*
X030211Y005831D01*
X030202Y005847D01*
X030196Y005865D01*
X030194Y005883D01*
X030658Y005146D02*
X030658Y005046D01*
X030758Y005046D01*
X030758Y005146D01*
X030658Y005146D01*
X031542Y005371D02*
X031542Y005450D01*
X031542Y004820D02*
X031542Y004741D01*
X032058Y010127D02*
X033058Y010127D01*
X033058Y013127D01*
X032058Y013127D01*
X032058Y010127D01*
X030758Y011597D02*
X030658Y011597D01*
X030658Y011697D01*
X030758Y011697D01*
X030758Y011597D01*
X030508Y011497D02*
X030158Y011497D01*
X030158Y011797D01*
X030508Y011797D01*
X030508Y011497D01*
X029574Y011371D02*
X029574Y011292D01*
X027782Y013402D02*
X027782Y016402D01*
X026782Y016402D01*
X026782Y013402D01*
X027782Y013402D01*
X029574Y014568D02*
X029574Y014647D01*
X029574Y015198D02*
X029574Y015277D01*
X029258Y015402D02*
X029258Y015702D01*
X027782Y016678D02*
X027782Y019678D01*
X026782Y019678D01*
X026782Y016678D01*
X027782Y016678D01*
X030164Y019182D02*
X030951Y019182D01*
X030194Y018985D02*
X030196Y019003D01*
X030202Y019021D01*
X030211Y019037D01*
X030223Y019050D01*
X030238Y019061D01*
X030255Y019069D01*
X030273Y019073D01*
X030291Y019073D01*
X030309Y019069D01*
X030326Y019061D01*
X030341Y019050D01*
X030353Y019037D01*
X030362Y019021D01*
X030368Y019003D01*
X030370Y018985D01*
X030368Y018967D01*
X030362Y018949D01*
X030353Y018933D01*
X030341Y018920D01*
X030326Y018909D01*
X030309Y018901D01*
X030291Y018897D01*
X030273Y018897D01*
X030255Y018901D01*
X030238Y018909D01*
X030223Y018920D01*
X030211Y018933D01*
X030202Y018949D01*
X030196Y018967D01*
X030194Y018985D01*
X030658Y018248D02*
X030758Y018248D01*
X030758Y018148D01*
X030658Y018148D01*
X030658Y018248D01*
X031542Y018474D02*
X031542Y018552D01*
X031542Y017922D02*
X031542Y017844D01*
X032058Y019954D02*
X033058Y019954D01*
X033058Y022954D01*
X032058Y022954D01*
X032058Y019954D01*
X030758Y021424D02*
X030658Y021424D01*
X030658Y021524D01*
X030758Y021524D01*
X030758Y021424D01*
X030508Y021324D02*
X030158Y021324D01*
X030158Y021624D01*
X030508Y021624D01*
X030508Y021324D01*
X029574Y021198D02*
X029574Y021119D01*
X024298Y018552D02*
X024298Y018474D01*
X023982Y018678D02*
X023982Y018978D01*
X024298Y017922D02*
X024298Y017844D01*
X022507Y016678D02*
X022507Y019678D01*
X021507Y019678D01*
X021507Y016678D01*
X022507Y016678D01*
X024298Y014647D02*
X024298Y014568D01*
X022507Y019954D02*
X021507Y019954D01*
X021507Y022954D01*
X022507Y022954D01*
X022507Y019954D01*
X020991Y024395D02*
X020991Y024474D01*
X020991Y025025D02*
X020991Y025103D01*
X029574Y030946D02*
X029574Y031025D01*
X030158Y031150D02*
X030158Y031450D01*
X030508Y031450D01*
X030508Y031150D01*
X030158Y031150D01*
X030658Y031250D02*
X030758Y031250D01*
X030758Y031350D01*
X030658Y031350D01*
X030658Y031250D01*
X032058Y029780D02*
X033058Y029780D01*
X033058Y032780D01*
X032058Y032780D01*
X032058Y029780D01*
X030951Y029009D02*
X030164Y029009D01*
X030194Y028812D02*
X030196Y028830D01*
X030202Y028848D01*
X030211Y028864D01*
X030223Y028877D01*
X030238Y028888D01*
X030255Y028896D01*
X030273Y028900D01*
X030291Y028900D01*
X030309Y028896D01*
X030326Y028888D01*
X030341Y028877D01*
X030353Y028864D01*
X030362Y028848D01*
X030368Y028830D01*
X030370Y028812D01*
X030368Y028794D01*
X030362Y028776D01*
X030353Y028760D01*
X030341Y028747D01*
X030326Y028736D01*
X030309Y028728D01*
X030291Y028724D01*
X030273Y028724D01*
X030255Y028728D01*
X030238Y028736D01*
X030223Y028747D01*
X030211Y028760D01*
X030202Y028776D01*
X030196Y028794D01*
X030194Y028812D01*
X030658Y028075D02*
X030658Y027975D01*
X030758Y027975D01*
X030758Y028075D01*
X030658Y028075D01*
X031542Y028300D02*
X031542Y028379D01*
X031542Y027749D02*
X031542Y027670D01*
X030951Y036867D02*
X030164Y036867D01*
X029574Y037497D02*
X029574Y037576D01*
X013747Y037497D02*
X013747Y037576D01*
X002880Y025529D02*
X002880Y025229D01*
X003196Y025103D02*
X003196Y025025D01*
X003196Y024474D02*
X003196Y024395D01*
X002880Y015702D02*
X002880Y015402D01*
X003196Y015277D02*
X003196Y015198D01*
X003196Y014647D02*
X003196Y014568D01*
X002880Y002600D02*
X002880Y002300D01*
X003196Y002174D02*
X003196Y002096D01*
X003196Y001544D02*
X003196Y001466D01*
M02*
