%
M48
M72
T01C0.0400
%
T01
X2180Y800
X2180Y1800
X2180Y2800
X2180Y4076
X2180Y5076
X2180Y6076
X2180Y7351
X2180Y8351
X2180Y9351
X2180Y10627
X2180Y11627
X2180Y12627
X2180Y13902
X2180Y14902
X2180Y15902
X2180Y17178
X2180Y18178
X2180Y19178
X2180Y20454
X2180Y21454
X2180Y22454
X2180Y23729
X2180Y24729
X2180Y25729
X2180Y27005
X2180Y28005
X2180Y29005
X2180Y30280
X2180Y31280
X2180Y32280
X2180Y33556
X2180Y34556
X2180Y35556
X2180Y36831
X2180Y37831
X2180Y38831
X6180Y38831
X6180Y37831
X6180Y36831
X6180Y35556
X6180Y34556
X6180Y33556
X6180Y32280
X6180Y31280
X6180Y30280
X6180Y29005
X6180Y28005
X6180Y27005
X6180Y25729
X6180Y24729
X6180Y23729
X7455Y23729
X7455Y24729
X7455Y25729
X7455Y27005
X7455Y28005
X7455Y29005
X7455Y30280
X7455Y31280
X7455Y32280
X7455Y33556
X7455Y34556
X7455Y35556
X7455Y36831
X7455Y37831
X7455Y38831
X11455Y38831
X11455Y37831
X11455Y36831
X11455Y35556
X11455Y34556
X11455Y33556
X11455Y32280
X11455Y31280
X11455Y30280
X11455Y29005
X11455Y28005
X11455Y27005
X11455Y25729
X11455Y24729
X11455Y23729
X11455Y22454
X11455Y21454
X11455Y20454
X11455Y19178
X11455Y18178
X11455Y17178
X11455Y15902
X11455Y14902
X11455Y13902
X11455Y12627
X11455Y11627
X11455Y10627
X11455Y9351
X11455Y8351
X11455Y7351
X11455Y6076
X11455Y5076
X11455Y4076
X11455Y2800
X11455Y1800
X11455Y800
X12731Y800
X12731Y1800
X12731Y2800
X12731Y4076
X12731Y5076
X12731Y6076
X12731Y7351
X12731Y8351
X12731Y9351
X12731Y10627
X12731Y11627
X12731Y12627
X12731Y13902
X12731Y14902
X12731Y15902
X12731Y17178
X12731Y18178
X12731Y19178
X12731Y20454
X12731Y21454
X12731Y22454
X12731Y23729
X12731Y24729
X12731Y25729
X12731Y27005
X12731Y28005
X12731Y29005
X12731Y30280
X12731Y31280
X12731Y32280
X12731Y33556
X12731Y34556
X12731Y35556
X12731Y36831
X12731Y37831
X12731Y38831
X16731Y38831
X16731Y37831
X16731Y36831
X16731Y35556
X16731Y34556
X16731Y33556
X18007Y33556
X18007Y34556
X18007Y35556
X18007Y36831
X18007Y37831
X18007Y38831
X22007Y38831
X22007Y37831
X22007Y36831
X22007Y35556
X22007Y34556
X22007Y33556
X22007Y32280
X22007Y31280
X22007Y30280
X22007Y29005
X22007Y28005
X22007Y27005
X22007Y25729
X22007Y24729
X22007Y23729
X23282Y23729
X23282Y24729
X23282Y25729
X23282Y27005
X23282Y28005
X23282Y29005
X23282Y30280
X23282Y31280
X23282Y32280
X23282Y33556
X23282Y34556
X23282Y35556
X23282Y36831
X23282Y37831
X23282Y38831
X27282Y38831
X27282Y37831
X27282Y36831
X27282Y35556
X27282Y34556
X27282Y33556
X27282Y32280
X27282Y31280
X27282Y30280
X27282Y29005
X27282Y28005
X27282Y27005
X27282Y25729
X27282Y24729
X27282Y23729
X27282Y22454
X27282Y21454
X27282Y20454
X27282Y19178
X27282Y18178
X27282Y17178
X27282Y15902
X27282Y14902
X27282Y13902
X27282Y12627
X27282Y11627
X27282Y10627
X27282Y9351
X27282Y8351
X27282Y7351
X27282Y6076
X27282Y5076
X27282Y4076
X27282Y2800
X27282Y1800
X27282Y800
X28558Y800
X28558Y1800
X28558Y2800
X28558Y4076
X28558Y5076
X28558Y6076
X28558Y7351
X28558Y8351
X28558Y9351
X28558Y10627
X28558Y11627
X28558Y12627
X28558Y13902
X28558Y14902
X28558Y15902
X28558Y17178
X28558Y18178
X28558Y19178
X28558Y20454
X28558Y21454
X28558Y22454
X28558Y23729
X28558Y24729
X28558Y25729
X28558Y27005
X28558Y28005
X28558Y29005
X28558Y30280
X28558Y31280
X28558Y32280
X28558Y33556
X28558Y34556
X28558Y35556
X28558Y36831
X28558Y37831
X28558Y38831
X32558Y38831
X32558Y37831
X32558Y36831
X32558Y35556
X32558Y34556
X32558Y33556
X32558Y32280
X32558Y31280
X32558Y30280
X32558Y29005
X32558Y28005
X32558Y27005
X32558Y25729
X32558Y24729
X32558Y23729
X32558Y22454
X32558Y21454
X32558Y20454
X32558Y19178
X32558Y18178
X32558Y17178
X32558Y15902
X32558Y14902
X32558Y13902
X32558Y12627
X32558Y11627
X32558Y10627
X32558Y9351
X32558Y8351
X32558Y7351
X32558Y6076
X32558Y5076
X32558Y4076
X32558Y2800
X32558Y1800
X32558Y800
X23282Y800
X23282Y1800
X23282Y2800
X23282Y4076
X23282Y5076
X23282Y6076
X23282Y7351
X23282Y8351
X23282Y9351
X23282Y10627
X23282Y11627
X23282Y12627
X23282Y13902
X23282Y14902
X23282Y15902
X23282Y17178
X23282Y18178
X23282Y19178
X23282Y20454
X23282Y21454
X23282Y22454
X22007Y22454
X22007Y21454
X22007Y20454
X22007Y19178
X22007Y18178
X22007Y17178
X22007Y15902
X22007Y14902
X22007Y13902
X22007Y12627
X22007Y11627
X22007Y10627
X22007Y9351
X22007Y8351
X22007Y7351
X22007Y6076
X22007Y5076
X22007Y4076
X22007Y2800
X22007Y1800
X22007Y800
X18007Y800
X18007Y1800
X18007Y2800
X18007Y4076
X18007Y5076
X18007Y6076
X18007Y7351
X18007Y8351
X18007Y9351
X18007Y10627
X18007Y11627
X18007Y12627
X16731Y12627
X16731Y11627
X16731Y10627
X16731Y9351
X16731Y8351
X16731Y7351
X16731Y6076
X16731Y5076
X16731Y4076
X16731Y2800
X16731Y1800
X16731Y800
X7455Y800
X7455Y1800
X7455Y2800
X7455Y4076
X7455Y5076
X7455Y6076
X7455Y7351
X7455Y8351
X7455Y9351
X7455Y10627
X7455Y11627
X7455Y12627
X6180Y12627
X6180Y11627
X6180Y10627
X6180Y9351
X6180Y8351
X6180Y7351
X6180Y6076
X6180Y5076
X6180Y4076
X6180Y2800
X6180Y1800
X6180Y800
X6180Y13902
X6180Y14902
X6180Y15902
X6180Y17178
X6180Y18178
X6180Y19178
X6180Y20454
X6180Y21454
X6180Y22454
X7455Y22454
X7455Y21454
X7455Y20454
X7455Y19178
X7455Y18178
X7455Y17178
X7455Y15902
X7455Y14902
X7455Y13902
X16731Y13902
X16731Y14902
X16731Y15902
X18007Y15902
X18007Y14902
X18007Y13902
X18007Y17178
X18007Y18178
X18007Y19178
X18007Y20454
X18007Y21454
X18007Y22454
X16731Y22454
X16731Y21454
X16731Y20454
X16731Y19178
X16731Y18178
X16731Y17178
X16731Y23729
X16731Y24729
X16731Y25729
X18007Y25729
X18007Y24729
X18007Y23729
X18007Y27005
X18007Y28005
X18007Y29005
X18007Y30280
X18007Y31280
X18007Y32280
X16731Y32280
X16731Y31280
X16731Y30280
X16731Y29005
X16731Y28005
X16731Y27005
M30
